/* XPM */
static char * pb_open_fold_xpm[] = {
/* width height ncolors cpp [x_hot y_hot] */
"18 13 10 1 0 0",
/* colors */
" 	s none	m none	c none",
".	s iconColor1	m black	c black",
"X	s iconGray4	m white	c #949494949494",
"o	s iconColor6	m white	c yellow",
"O	s iconGray5	m black	c #737373737373",
"+	s iconGray6	m black	c #636363636363",
"@	s iconGray7	m black	c #424242424242",
"#	s iconGray2	m white	c #bdbdbdbdbdbd",
"$	s iconGray1	m white	c #dededededede",
"%	s iconGray3	m white	c #adadadadadad",
/* pixels */
"     .....X       ",
"    .ooooo.X      ",
"   Oooooooo.....X ",
"   Ooooooooooooo.X",
"   Ooooooooooooo.X",
"++++@@@@@@@@@#o$.X",
" +ooooooooooo@$o.X",
" +ooooooooooo+%o.X",
"  @ooooooooooo@#.X",
"  +o$o$o$o$o$o+%.X",
"   .o#o#o#o#o#o..X",
"   ..............X",
"    XXXXXXXXXXXXXX"};
