/* XPM */
static char * pb_advisor_xpm[] = {
/* width height ncolors cpp [x_hot y_hot] */
"32 32 17 1 0 0",
/* colors */
" 	s iconColor6	m white	c yellow",
".	c #AAAABFBFBFBF",
"X	s iconColor5	m black	c blue",
"o	c #AAAA80808080",
"O	c #5555BFBFBFBF",
"+	c #555580808080",
"@	s bottomShadowColor	m black	c #636363636363",
"#	s iconColor1	m black	c black",
"$	s iconColor2	m white	c white",
"%	s iconGray4	m white	c #949494949494",
"&	s iconGray8	m black	c #212121212121",
"*	c #000000008080",
"=	c #00000000BFBF",
"-	c #AAAABFBF8080",
";	c #AAAA8080BFBF",
":	c #5555BFBF8080",
">	s iconGray1	m white	c #dededededede",
/* pixels */
"          ...  ....             ",
" XXXXXXX..o.o...ooOo..XXXXXXXXX ",
" XXXXXoXo.o+.+oo@.+.o..o##XXXXX ",
" XXX#.o.o.+.o.o.@.o@@o.oo.#XXXX ",
" XXXo.oo@@o.o.o@.o@Oo.@+.o+#XXX ",
" XX.@OooOo@ooOo@o@@o.@@o.+o.oXX ",
" X#o.@ooo.o@+.o@@@@@.@o@@..oXXX ",
" Xo@oo.@o.$@@o.@o.@@@@@.+@@%.XX ",
" o@.o@oo.o@$ @@@ $ $ $@@oo.oXXX ",
" o.@o.@o@@$ $ $ $ $ $ $ @.o.ooX ",
"oo@.@oo@@o.$ $ $ $ $ $ $@o.o.oX ",
"o@o@.@o@.o. $ $ $ $ $ $ $@oOo.o ",
"o.@o@o@@@.oo.$ $ $ $ $ $ @o&o+. ",
".@.@o@@.@o+o$ $ $ $ $ $ $@ooOo. ",
"oo@.@o@@@o@@@@@$ $ $@@@$ $#o&.X ",
".@o@.@o@o@@ @ @@$ $@@   $ ##%XX ",
"o.@@@@@@o@ @@@@@ $@@*=@@@$#.oXX ",
" @@oo@@.o.@=* @.o @@* @oo.#%XXX ",
" .@.@o@o.oo@*$ .o$@o $ $o#oXXXX ",
" o@.@o@oO@$ $ $o$ $ $ $ $#.XXXX ",
" X@@@@@.o@ $ $ +o$ $ $ $ #XXXXX ",
" XX@o.@.o@$ $ o@@ $ $ $ $#XXXXX ",
" XXX@o@o.o@$ $@@o$ $ $ $ #XXXXX ",
" XXXX@oo.o-@$@@.@ $o$ $ #XXXXXX ",
" XXXX@.o.o.oo.o@@@@@ $ $#XXXXXX ",
" XXXXX-;:;@.o@@@@@.@@ $ #XXXXXX ",
" XXXXXo.o.@o@@@@@o@@@@ #XXXXXXX ",
" XXXXXXo;-@o@@@o.oo@@@>XXXXXXXX ",
" XXXXXXXXo.oo.o$ o $@>XXXXXXXXX ",
" XXXXXXXXX.o.@$ $ $ $XXXXXXXXXX ",
" XXXXXXXXXXo.o@$o$o>XXXXXXXXXXX ",
"             o.o@o>             "};
