/* XPM */
static char * optnows_xpm[] = {
/* width height ncolors cpp [x_hot y_hot] */
"10 20 3 1 0 0",
/* colors */
" 	s none	m none	c none",
".	s iconColor3	m black	c red",
"X	s iconColor5	m black	c blue",
/* pixels */
"          ",
"          ",
"   ...    ",
"  .. ..   ",
" ..   ..  ",
" .     .  ",
" ..   ..  ",
"  .. ..   ",
"   ...    ",
"          ",
"          ",
"          ",
"          ",
" XX   XX  ",
" XXX  XX  ",
" XX X XX  ",
" XX  XXX  ",
" XX   XX  ",
"          ",
"          "};
