#define ck_on.xbm_width 12
#define ck_on.xbm_height 12
static unsigned char ck_on.xbm_bits[] = {
   0xff, 0x07, 0x01, 0x0c, 0x01, 0x0d, 0x81, 0x0d, 0xc5, 0x0d, 0xed, 0x0c,
   0x7d, 0x0c, 0x39, 0x0c, 0x11, 0x0c, 0x01, 0x0c, 0xff, 0x0f, 0xfe, 0x0f};
