/* XPM */

static char * pb_cmd_xpm[] = {
/* width height ncolors cpp [x_hot y_hot] */
"16 19 8 1 0 0",
/* colors */
" 	s none	m none	c none",
".	s iconColor1	m black	c black",
"X	s iconGray5	m black	c #737373737373",
"o	s iconColor2	m white	c white",
"O	s iconGray1	m white	c #dededededede",
"+	s iconGray4	m white	c #949494949494",
"@	s iconGray6	m black	c #636363636363",
"#	s iconGray2	m white	c #bdbdbdbdbdbd",
/* pixels */
"                ",
"                ",
"                ",
"      ...       ",
"  ...Xoo.       ",
" .OoooO.        ",
".Oooo+X.....@@X ",
"oooooooooooooo.X",
"ooooooooX...@@X ",
"oooooooooo#.    ",
"ooooooooX..+    ",
"oooooooooo.+    ",
"ooooooooX.+     ",
"..ooooooo.+     ",
"OO....@@@+      ",
"  OOO####       ",
"                ",
"                ",
"                "};
