#define pb_d_addr.xbm_width 20
#define pb_d_addr.xbm_height 20
static unsigned char pb_d_addr.xbm_bits[] = {
   0x00, 0x00, 0x00, 0x00, 0x00, 0x00, 0x00, 0x00, 0x00, 0xe0, 0x0f, 0x00,
   0xc0, 0x38, 0x00, 0xc0, 0x60, 0x00, 0xc0, 0x60, 0x00, 0xc0, 0xc0, 0x00,
   0xc0, 0xc0, 0x00, 0xc0, 0xc0, 0x00, 0xc0, 0xc0, 0x00, 0xc0, 0xc0, 0x00,
   0xc0, 0xc0, 0x00, 0xc0, 0x60, 0x00, 0xc0, 0x60, 0x00, 0xc0, 0x38, 0x00,
   0xe0, 0x0f, 0x00, 0x00, 0x00, 0x00, 0x00, 0x00, 0x00, 0x00, 0x00, 0x00};
