/* XPM */
static char *pb_diamond_xpm[] = {
/* width height num_colors chars_per_pixel */
"   170    21       16            1",
/* colors */
"` c None",
". c #800000",
"# c #008000",
"a c #808000",
"b c #000080",
"c c #800080",
"d c #008080",
"e c #808080",
"f c #c0c0c0",
"g c #ff0000",
"h c #00ff00",
"i c #ffff00",
"j c #0000ff",
"k c #ff00ff",
"l c #00ffff",
"m c #ffffff",
/* pixels */
"jjjjjjjjjjjjjjjjjjjjjjjjjjjjjjjjjjjjjjjjjjjjjjjjjjjjjjjjjjjjjjjjjjjjjjjjjjjjjjjjjjjjjjjjjjjjjjjjjjjjjjjjjjjjjjjjjjjjjjjjjjjjjjjjjjjjjjjjjjjjjjjjjjjjjjjjjjjjjjjjjjjjjjjjjj",
"jmmmmmmmmmmmmmmmmmmmmmmmmmmmmmmmmmmmmmmmmmmmmmmmmmmmmmmmmmmmmmmmmmmmmmmmmmmmmmmmmmmmmmmmmmmmmmmmmmmmmmmmmmmmmmmmmmmmmmmmmmmmmmmmmmmmmmmmmmmmmmmmmmmmmmmmmmmmmmmmmmmmmmmmmj",
"jm``````````````````````````````````````````````````````````````````````````````````````````````````````````````````````````````````````````````````````````````````````mj",
"jm````````ef````````````````````````````````````````````````````````````````````````````````````````````````````````````````````````````````````````````````````````````mj",
"jm```````gggf```````````````````````````````````````````````````````````````````````````````````````````````````````````````````````````````````````````````````````````mj",
"jm``````gggggf``````````````````````````````````````````````````````````````````````````````````````````````````````````````````````````````````````````````````````````mj",
"jm`````gggggggf`````````````````````````````````````````````````````````````````````````````````````````````````````````````````````````````````````````````````````````mj",
"jm````gggggggggf````````````````````````````````````````````````````````````````````````````````````````````````````````````````````````````````````````````````````````mj",
"jm```gggggggggggf```````````````````````````````````````````````````````````````````````````````````````````````````````````````````````````````````````````````````````mj",
"jm``gggggggggggggf``````````````````````````````````````````````````````````````````````````````````````````````````````````````````````````````````````````````````````mj",
"jm`egggggggggggggef`````````````````````````````````````````````````````````````````````````````````````````````````````````````````````````````````````````````````````mj",
"jm``ggggggggggggef``````````````````````````````````````````````````````````````````````````````````````````````````````````````````````````````````````````````````````mj",
"jm```ggggggggggef```````````````````````````````````````````````````````````````````````````````````````````````````````````````````````````````````````````````````````mj",
"jm````ggggggggef````````````````````````````````````````````````````````````````````````````````````````````````````````````````````````````````````````````````````````mj",
"jm`````ggggggef`````````````````````````````````````````````````````````````````````````````````````````````````````````````````````````````````````````````````````````mj",
"jm``````ggggef``````````````````````````````````````````````````````````````````````````````````````````````````````````````````````````````````````````````````````````mj",
"jm```````ggef```````````````````````````````````````````````````````````````````````````````````````````````````````````````````````````````````````````````````````````mj",
"jm````````ef````````````````````````````````````````````````````````````````````````````````````````````````````````````````````````````````````````````````````````````mj",
"jm``````````````````````````````````````````````````````````````````````````````````````````````````````````````````````````````````````````````````````````````````````mj",
"jmmmmmmmmmmmmmmmmmmmmmmmmmmmmmmmmmmmmmmmmmmmmmmmmmmmmmmmmmmmmmmmmmmmmmmmmmmmmmmmmmmmmmmmmmmmmmmmmmmmmmmmmmmmmmmmmmmmmmmmmmmmmmmmmmmmmmmmmmmmmmmmmmmmmmmmmmmmmmmmmmmmmmmmmj",
"jjjjjjjjjjjjjjjjjjjjjjjjjjjjjjjjjjjjjjjjjjjjjjjjjjjjjjjjjjjjjjjjjjjjjjjjjjjjjjjjjjjjjjjjjjjjjjjjjjjjjjjjjjjjjjjjjjjjjjjjjjjjjjjjjjjjjjjjjjjjjjjjjjjjjjjjjjjjjjjjjjjjjjjjjj"
};
