/* XPM */
static const char *pb_event_help_xpm[] = {
/* width height num_colors chars_per_pixel */
"    24    24       32            1",
/* colors */
"` c #0503cb",
". c #5c8da9",
"# c #a4ca84",
"a c #dbdb8f",
"b c #91928c",
"c c #fcfe86",
"d c #6da1a0",
"e c #ecf1c7",
"f c #9cc6dc",
"g c none",
"h c #4848ac",
"i c #98b49c",
"j c #67a3bc",
"k c #fcfec6",
"l c #cacbc6",
"m c #dad9da",
"n c #bddadb",
"o c #646494",
"p c #3436c6",
"q c #1c72a4",
"r c #cccea0",
"s c #7c7cb4",
"t c #acaa9c",
"u c #8482a4",
"v c #9799b9",
"w c #191abf",
"x c #7aafc4",
"y c #b9babe",
"z c #a4a490",
"A c #7cb191",
"B c #bfdba1",
"C c #fcfea0",
/* pixels */
"gggggggggggggggggggggggg",
"gggnxxxxxxxxxxxxxxnggggg",
"ggnjekkkkkkkkkkkkkdmgggg",
"ggnnkkkkkeyllkkkkCk.mggg",
"ggnnkkkks````pekCkC.mggg",
"ggnnkkkv```w``hkCCk.mggg",
"ggnnkkkp`wzro``akCC.mggg",
"ggnlkkklvbkep``rCCC.mggg",
"ggnnkkkkkkrw``oecCC.mggg",
"ggnnkkkkkCp``oacCCC.mggg",
"ggnBkkkkCl``haCCCcc.mggg",
"ggnlkkCkCl``bCCcCcC.mggg",
"ggnBkkCkCCsoaCcCccc.mggg",
"ggnnCkCCCv``ucCcCcc.mggg",
"ggnBkCCkCv``occcccc.lggg",
"ggnrkCCCCCzbacccccc.mggg",
"ggnxCCCCCcccccccccB.mggg",
"gggxxdxdddddddaccA.tmggg",
"ggggmemmmmmmllj#cdtlgggg",
"gggggggggggggggj#Atggggg",
"ggggggggggggggggfA.ngggg",
"gggggggggggggggggfqlgggg",
"ggggggggggggggggggfygggg",
"gggggggggggggggggggfnggg"
};
