/* XPM */
static char * pb_event_xpm[] = {
/* width height ncolors cpp [x_hot y_hot] */
"170 25 7 1 0 0",
/* colors */
" 	s none	m none	c none",
".	s iconGray1	m white	c #dededededede",
"X	s iconColor1	m black	c black",
"o	s iconColor6	m white	c yellow",
"O	s iconColor7	m white	c cyan",
"+	s iconColor3	m black	c red",
"@	s iconColor5	m black	c blue",
/* pixels */
"                                                                                                                                                                         .",
"                                                                                                                                                                         .",
"                                                                                                                                                                         .",
"                                                                                                                                                                         .",
"                                                                                                                                                                         .",
"      XXXXXX                                                                                                                                                             .",
"     XooooXX                                                                                                                                                             .",
"    XXXXXXOX                                                                                                                                                             .",
"    X++++XOX                                                                                                                                                             .",
"    X++++XOX                                                                                                                                                             .",
"    X++++XOXXXXXX                                                                                                                                                        .",
"    X++++XXooooXX                                                                                                                                                        .",
"    XXXXXXXXXXX@X                                                                                                                                                        .",
"   XOOOOXXOOOOX@X                                                                                                                                                        .",
"  XXXXXX+XOOOOX@X                                                                                                                                                        .",
"  XooooX+XOOOOX@X                                                                                                                                                        .",
"  XooooX+XOOOOXX                                                                                                                                                         .",
"  XooooX+XXXXXX                                                                                                                                                          .",
"  XooooXX                                                                                                                                                                .",
"  XXXXXX                                                                                                                                                                 .",
"                                                                                                                                                                         .",
"                                                                                                                                                                         .",
"                                                                                                                                                                         .",
"                                                                                                                                                                         .",
".........................................................................................................................................................................."};
