/* XPM */
static char *32-32-5beae3f3b25bb0ecf639c2ab5ab703e6_xpm[] = {
/* width height num_colors chars_per_pixel */
"    32    32       32            1",
/* colors */
"` c #464546",
". c #48a2ec",
"# c #545251",
"a c #a5a6a5",
"b c #547ea4",
"c c #0575d6",
"d c #d4d3d4",
"e c #058bfc",
"f c #646664",
"g c #c0c0c1",
"h c #7d7b7c",
"i c #f1f0f1",
"j c #7c96ac",
"k c #357ebb",
"l c #4490d0",
"m c #6e6d6c",
"n c none",
"o c #4c6c8a",
"p c #7491a9",
"q c #9a9c9a",
"r c #2c9efc",
"s c #249afc",
"t c #625e5e",
"u c #b4b2b4",
"v c #fcfefc",
"w c #64aaec",
"x c #54718c",
"y c #0482ec",
"z c #e3e0df",
"A c #868787",
"B c #8c8e8c",
"C c #747478",
/* pixels */
"nnnnnnnnnnnnnnnnnnnnnnnnnnnnnnnn",
"nnnnnnnnnnniuuuuuuuuugnnnnnnnnnn",
"nnnnnnnnnnimBdddddddduqnnnnnnnnn",
"nnnnnnnnnihgavvvvvvvvvAnnnnnnnnn",
"nnnnnnnnihzzavvvvvvvvvAninnnnnnn",
"nnnnnnnihzvzavvvvvvvvvAg`#dnnnnn",
"nnnnnnihzvvzavvvvvvvvvf````znnnn",
"nnnnnihzvvvzavvvvvvvvgC`````dnnn",
"nnnnihzvvvvzavvvvvvvgkjB`````dnn",
"nnnihzvvvvvzavvvvvvgkrrjB`````zn",
"nnihzvvvvvvdavvvvvgkrrsejA````an",
"nimgzzzzzzdhivvvvgkrsseeepB``tin",
"nuBaaaaaaaaivvvvgkrsseeeycpAtinn",
"nudvvvvvvvvvvvvgkrsseeeycccminnn",
"nudvvvvvvvvvvvgksrseeeycccoinnnn",
"nudvvvvvvvvvvgksrseeeycccoinnnnn",
"nudvvvvvvvvvgksrseeeycccoinnnnnn",
"nudvvvvvvvvgksrseeeycccoinnnnnnn",
"nudvvvvvvvzbsrseeeycccoinnnnnnnn",
"nudvvvvvvvanwseeeycccohinnnnnnnn",
"nudvvvvvvvBnn.eeycccoiAinnnnnnnn",
"nudvvvvvvzqnnn.ycccoivAinnnnnnnn",
"nudvvvvvvahgnnnlccoivvAinnnnnnnn",
"nudvvvvvvf`#gnnnlxivvvAinnnnnnnn",
"nudvvvvvz```fnaBaivvvvAinnnnnnnn",
"nudvvvvva```#advvvvvvvAinnnnnnnn",
"nudvvvvvm#BdvvvvvvvvvvAinnnnnnnn",
"nudvvvvvivvvvvvvvvvvvvAinnnnnnnn",
"nudvvvvvvvvvvvvvvvvvvvAinnnnnnnn",
"nzAdddddddddddddddddduqnnnnnnnnn",
"nnduuuuuuuuuuuuuuuuuugnnnnnnnnnn",
"nnnnnnnnnnnnnnnnnnnnnnnnnnnnnnnn"
};
