/* XPM */

static char * format_xpm[] = {
/* width height ncolors cpp [x_hot y_hot] */
"13 19 6 1 0 0",
/* colors */
" 	s none	m none	c none",
".	s iconColor1	m black	c black",
"X	s iconColor2	m white	c white",
"o	s iconGray4	m white	c #949494949494",
"O	s iconColor5	m black	c blue",
"+	s iconColor4	m white	c green",
/* pixels */
"             ",
"             ",
"             ",
"             ",
"             ",
"............ ",
".XXXXXXXXXX.o",
".XOOOOOOOOX.o",
".XO++O+++OX.o",
".XOOOOOOOOX.o",
".XO++O+++OX.o",
".XOOOOOOOOX.o",
".XXXXXXXXXX.o",
"............o",
" oooooooooooo",
"             ",
"             ",
"             ",
"             "};
