/* XPM */
static const char *pb_function_new_xpm[] = {
/* width height num_colors chars_per_pixel */
"   170    21        10            1",
/* colors */
"B c darkgrey",
"X c blue",
"` c none",
". c #bf9317",
"# c #e2d104",
"a c #ffffff",
"b c #ffff90",
"c c #a33904",
"d c #d3b112",
"e c #b36b0d",
/* pixels */
"XXXXXXXXXXXXXXXXXXXXXXXXXXXXXXXXXXXXXXXXXXXXXXXXXXXXXXXXXXXXXXXXXXXXXXXXXXXXXXXXXXXXXXXXXXXXXXXXXXXXXXXXXXXXXXXXXXXXXXXXXXXXXXXXXXXXXXXXXXXXXXXXXXXXXXXXXXXXXXXXXXXXXXXXXX",
"XaaaaaaaaaaaaaaaaaaaaaaaaaaaaaaaaaaaaaaaaaaaaaaaaaaaaaaaaaaaaaaaaaaaaaaaaaaaaaaaaaaaaaaaaaaaaaaaaaaaaaaaaaaaaaaaaaaaaaaaaaaaaaaaaaaaaaaaaaaaaaaaaaaaaaaaaaaaaaaaaaaaaaaaaX",
"Xa``BBBBBBBBBBBBBBBBBB``````````````````````````````````````````````````````````````````````````````````````````````````````````````````````````````````````````````````aX",
"Xa``Bbbbbb#ecc#bbbbbbB``````````````````````````````````````````````````````````````````````````````````````````````````````````````````````````````````````````````````aX",
"Xa``Bbbbb#c.bbbbbbbbbB``````````````````````````````````````````````````````````````````````````````````````````````````````````````````````````````````````````````````aX",
"Xa``BbbbbeebbbbbbbbbbB``````````````````````````````````````````````````````````````````````````````````````````````````````````````````````````````````````````````````aX",
"Xa``Bbbb#c.bbbbbbbbbbB``````````````````````````````````````````````````````````````````````````````````````````````````````````````````````````````````````````````````aX",
"Xa``Bbbbcccc.d#bbbbb#B``````````````````````````````````````````````````````````````````````````````````````````````````````````````````````````````````````````````````aX",
"Xa``Bbbbdcdb..bbbbb#dB``````````````````````````````````````````````````````````````````````````````````````````````````````````````````````````````````````````````````aX",
"Xa``Bbbbdc##c#bbbbb#dB``````````````````````````````````````````````````````````````````````````````````````````````````````````````````````````````````````````````````aX",
"Xa``Bbbbee#debdcdce#.B``````````````````````````````````````````````````````````````````````````````````````````````````````````````````````````````````````````````````aX",
"Xa``Bbbbce#ddb.cc.b#eB``````````````````````````````````````````````````````````````````````````````````````````````````````````````````````````````````````````````````aX",
"Xa``Bbbbcebd.bbec#b..B``````````````````````````````````````````````````````````````````````````````````````````````````````````````````````````````````````````````````aX",
"Xa``Bbb#ceb#ddccccdd#B``````````````````````````````````````````````````````````````````````````````````````````````````````````````````````````````````````````````````aX",
"Xa``Bbb#cdbb#bbbbb.ebB``````````````````````````````````````````````````````````````````````````````````````````````````````````````````````````````````````````````````aX",
"Xa``Bbb#c#bbbbbbbbbbbB``````````````````````````````````````````````````````````````````````````````````````````````````````````````````````````````````````````````````aX",
"Xa``BbbcdbbbbbbbbbbbbB``````````````````````````````````````````````````````````````````````````````````````````````````````````````````````````````````````````````````aX",
"Xa``BccebbbbbbbbbbbbbB``````````````````````````````````````````````````````````````````````````````````````````````````````````````````````````````````````````````````aX",
"Xa``BBBBBBBBBBBBBBBBBB``````````````````````````````````````````````````````````````````````````````````````````````````````````````````````````````````````````````````aX",
"XaaaaaaaaaaaaaaaaaaaaaaaaaaaaaaaaaaaaaaaaaaaaaaaaaaaaaaaaaaaaaaaaaaaaaaaaaaaaaaaaaaaaaaaaaaaaaaaaaaaaaaaaaaaaaaaaaaaaaaaaaaaaaaaaaaaaaaaaaaaaaaaaaaaaaaaaaaaaaaaaaaaaaaaaX",
"XXXXXXXXXXXXXXXXXXXXXXXXXXXXXXXXXXXXXXXXXXXXXXXXXXXXXXXXXXXXXXXXXXXXXXXXXXXXXXXXXXXXXXXXXXXXXXXXXXXXXXXXXXXXXXXXXXXXXXXXXXXXXXXXXXXXXXXXXXXXXXXXXXXXXXXXXXXXXXXXXXXXXXXXXX"
};
