/* XPM */
static char * pb_group_close_xpm[] = {
/* width height ncolors cpp [x_hot y_hot] */
"17 16 8 1",
/* colors */
"` c #ffffff",
". c #999999",
"# c #000000",
"a c #666666",
"b c #ffff00",
"c c #cccccc",
"d c #000000",
"e c #000000",
/* pixels */
"`````````````````",
"`````````````````",
"`````````````````",
"`````````````````",
"`````````````````",
"`aaaa```````aaaa`",
"``aaaa`````aaaa``",
"```aaaa```aaaa```",
"````aaaa`aaaa````",
"`````aaaaaaa`````",
"``````aaaaa``````",
"```````aaa```````",
"`````````````````",
"`````````````````",
"`````````````````",
"`````````````````"};
