#define pb_g_addr.xbm_width 20
#define pb_g_addr.xbm_height 20
static unsigned char pb_g_addr.xbm_bits[] = {
   0x00, 0x00, 0x00, 0x00, 0x00, 0x00, 0x00, 0x00, 0x00, 0x00, 0x5f, 0x00,
   0x80, 0x71, 0x00, 0xc0, 0x60, 0x00, 0xc0, 0x40, 0x00, 0x60, 0x00, 0x00,
   0x60, 0x00, 0x00, 0x60, 0x00, 0x00, 0x60, 0xf8, 0x00, 0x60, 0x60, 0x00,
   0x60, 0x60, 0x00, 0xc0, 0x60, 0x00, 0xc0, 0x60, 0x00, 0x80, 0x73, 0x00,
   0x00, 0x1e, 0x00, 0x00, 0x00, 0x00, 0x00, 0x00, 0x00, 0x00, 0x00, 0x00};
