/* XPM */
static const char *pb_group_open_xpm[] = {
/* width height num_colors chars_per_pixel */
"    17    16        8            1",
/* colors */
"` c #ffffff",
". c #999999",
"# c #000000",
"a c #666666",
"b c #ffff00",
"c c #cccccc",
"d c #000000",
"e c #000000",
/* pixels */
"`````````````````",
"`````````````````",
"`````````````````",
"`````````````````",
"`````````````````",
"```````aaa```````",
"``````aaaaa``````",
"`````aaaaaaa`````",
"````aaaa`aaaa````",
"```aaaa```aaaa```",
"``aaaa`````aaaa``",
"`aaaa```````aaaa`",
"`````````````````",
"`````````````````",
"`````````````````",
"`````````````````"};
