/* XPM */

static char * _help_man_xpm[] = {
/* width height ncolors cpp [x_hot y_hot] */
"24 24 21 1 0 0",
/* colors */
" 	s none	m none	c none",
".	c #AAAA0000BFBF",
"X	c #AAAA00008080",
"o	c #000000000000",
"O	c #AAAA8080BFBF",
"+	c #55550000BFBF",
"@	c #AAAA80808080",
"#	c #AAAABFBF0000",
"$	c #FFFFFFFF0000",
"%	s iconGray4	m white	c #949494949494",
"&	c #5555BFBF0000",
"*	s iconGray6	m black	c #636363636363",
"=	c #555500008080",
"-	c #AAAA80800000",
";	c #AAAABFBF8080",
":	c #AAAABFBFBFBF",
">	c #555580800000",
",	c #FFFFBFBFBFBF",
"<	c #FFFFBFBFFFFF",
"1	c #AAAABFBFFFFF",
"2	s iconColor2	m white	c white",
/* pixels */
"           .Xo          ",
"          XOX+oo        ",
"         XOX.X.Xoo      ",
"        .@X+X.XX.Xoo    ",
"       X@X.XX#$$#X.Xoo  ",
"      .@.+.X$$X$$$.X.Xo%",
"     .@..X.X#&X.#$&X.X.*",
"    .@X+X..X=.=##$#XXXo ",
"   .@..X.X.X-#$$$$X.Xo* ",
"  XOX+X.X.X-$$#-.X.Xo;* ",
" XOX.X.XXXXX#-.X.XXo;:* ",
"XoooX.XXX#$>X.X.XXo@:,* ",
".o@:ooX+X-$-.XX.Xo;:<1*%",
".o,2:@ooX+XX=.X.o;:<1;X*",
"Xo:222O;oo.XX.Xo@1<:;.o ",
"Xo,22222:@oo+Xo;1,1;.o  ",
"X.X2222222@:oo;1<1;.o   ",
" oo.X2222222@:1<:;.o    ",
"   ooX.222222:,1;Xo     ",
"     ooXX2222,1;Xo      ",
"       ooX+22;;.o       ",
"         ooX@;Xo        ",
"           oo.o         ",
"            %*          "};
