/* XPM */

static char * _help_dia_xpm[] = {
/* width height ncolors cpp [x_hot y_hot] */
"24 24 13 1 0 0",
/* colors */
" 	s none	m none	c none",
".	s iconColor1	m black	c black",
"X	s iconGray4	m white	c #949494949494",
"o	s iconColor6	m white	c yellow",
"O	s iconColor2	m white	c white",
"+	s iconGray5	m black	c #737373737373",
"@	s iconColor4	m white	c green",
"#	s iconGray3	m white	c #adadadadadad",
"$	s iconGray2	m white	c #bdbdbdbdbdbd",
"%	s iconGray6	m black	c #636363636363",
"&	s iconGray1	m white	c #dededededede",
"*	s iconColor7	m white	c cyan",
"=	s iconColor5	m black	c blue",
/* pixels */
"                        ",
"    ......X             ",
"   .oooooo.X            ",
" ...................... ",
" .OOOOOOOOOOOOOOOOOOOO.X",
" .OXXO+O+O+OXXXXXXXXXO.X",
" .OXOO+O+O+OOOOOOOOOXO.X",
" .OXOOOOOOOO+++++++OXO.X",
" .OXO.O.O.OO+@@@@@#OXO.X",
" .OXO$O$O$OO+######OXO.X",
" .OXOOOOOOOOOOOOOOOOXO.X",
" .OXOXXXXXXXX%OOOOOO&O+X",
" .OXOX*O*O*O*%OOO=====#X",
" .OXOXO*OXXXO%OO=OOO===X",
" .OXOX*O*O*O*%O&==OOO==X",
" .OXOX%%%%%%%%O&==OOO==X",
" .OXOOOOOOOOOOO&&&OO===X",
" .OXXXXXXXXXXXXXXXX&==XX",
" .OOOOOOOOOOOOOOOOO==O+X",
" .OOOOOOOOOOOOOOOOO=$O.X",
" .................X&X..X",
"  XXXXXXXXXXXXXXXXX=XXXX",
"                  ===   ",
"                  X=X   "};
