#define pb_h_addr.xbm_width 20
#define pb_h_addr.xbm_height 20
static unsigned char pb_h_addr.xbm_bits[] = {
   0x00, 0x00, 0x00, 0x00, 0x00, 0x00, 0x00, 0x00, 0x00, 0xe0, 0xf1, 0x00,
   0xc0, 0x60, 0x00, 0xc0, 0x60, 0x00, 0xc0, 0x60, 0x00, 0xc0, 0x60, 0x00,
   0xc0, 0x60, 0x00, 0xc0, 0x7f, 0x00, 0xc0, 0x60, 0x00, 0xc0, 0x60, 0x00,
   0xc0, 0x60, 0x00, 0xc0, 0x60, 0x00, 0xc0, 0x60, 0x00, 0xc0, 0x60, 0x00,
   0xe0, 0xf1, 0x00, 0x00, 0x00, 0x00, 0x00, 0x00, 0x00, 0x00, 0x00, 0x00};
