#define pb_hand.xbm_width 13
#define pb_hand.xbm_height 19
#define pb_hand.xbm_x_hot 0
#define pb_hand.xbm_y_hot 0
static unsigned char pb_hand.xbm_bits[] = {
   0x00, 0x00, 0xe0, 0x00, 0xb0, 0x01, 0xa8, 0x02, 0xa8, 0x06, 0xa8, 0x0a,
   0xa8, 0x0a, 0xae, 0x0a, 0xaa, 0x0a, 0x0a, 0x08, 0x0a, 0x08, 0x0a, 0x08,
   0x02, 0x08, 0x02, 0x08, 0x02, 0x08, 0x04, 0x08, 0x08, 0x04, 0x10, 0x04,
   0x00, 0x00};
