/* XPM */

static char * hrglass_xpm[] = {
/* width height ncolors cpp [x_hot y_hot] */
"23 34 17 1 -1 -1",
/* colors */
" 	s none	m none	c none",
".	c #BDBDBBBBB9B9",
"X	c #0F0F95959494",
"o	c #131369696A6A",
"O	c #0F0FBCBCBDBD",
"+	c #525252525151",
"@	c #161628282626",
"#	c #D5D5D3D3D3D3",
"$	c #070702020404",
"%	c #0404FCFCFAFA",
"&	c #6B6B69696B6B",
"*	c #A2A2A4A4A3A3",
"=	c #FBFBF9F9F1F1",
"-	c #838381818181",
";	c #ECECE9E9E0E0",
":	c #48483B3B3838",
">	c #545416161414",
/* pixels */
" .XXoooooooXXXXXXXO+@# ",
" X@oXXXXXXXoooooooO$$. ",
" Xoo%%%%%%%XXXXXXXO@$. ",
"  .$@@@@@@$$$$$$$$@+.  ",
"   $$$$$$$$$$$$$$$$+   ",
"   &*=##########=#$@   ",
"   -*=   ##;##;.==$@   ",
"   &&#   .*...*.;.$@   ",
"   &&;   ;.#;###=#$@   ",
"   :#;$#=$&=$&=$&=$$   ",
"   -*&$-;$:*$:*$@*$:   ",
"    $$=+$=+$=&$;-$.    ",
"    *+:&&:&-++-+:&     ",
"      $+#$+#$+#$:      ",
"       @$;&$;&$.       ",
"       *:&+:-+:        ",
"        =$&=$:=        ",
"        =:.#$+=        ",
"       #**#.&@+        ",
"       -+.##=:$.       ",
"      -&.=;*#;-$+      ",
"     *&*===**==:$&     ",
"    *+.===#....=+$.    ",
"   --.===......##-$:   ",
"   +-=   **....*==$$   ",
"   &-#   ......*;#$@   ",
"   &-#   .*....*;.$@   ",
"   &-=   #.####.=;$@   ",
"   &-;===#.####.=#$@   ",
"   o@oooooooooXoXX$:   ",
"  #XXOOXOOXoXXXXXX@:.  ",
" Ooo%%%%%%%XXXXXXXO@$. ",
" @$$$$$$$$$$$$$$$$$$$. ",
" -:::>>>>>:::::::::++; "};
