/* XPM */
static char * _info_xpm[] = {
/* width height ncolors cpp [x_hot y_hot] */
"24 24 4 1 0 0",
/* colors */
" 	s none	m none	c none",
".	s iconColor1	m black	c black",
"X	s iconColor5	m black	c blue",
"o	s iconColor6	m white	c yellow",
/* pixels */
"                        ",
"                        ",
"                        ",
"   .                    ",
"   ..         XXXXXX    ",
"   .o.       X    XXX   ",
"   .oo.     XXX    XXX  ",
"   .ooo.    XXX    XXX  ",
"   .oooo.   XXX    XXX  ",
"   .ooooo.        XXXX  ",
"   .oooooo.       XXX   ",
"   .ooo.....     XXX    ",
"   .oo..         XX     ",
"   .o. .        XX      ",
"   ..   .       XX      ",
"   .    .               ",
"         .      XX      ",
"         .     XXXX     ",
"          .     XX      ",
"          .             ",
"                        ",
"                        ",
"                        ",
"                        "};
