/* XPM */
static const char *pb_image_xpm[] = {
/* width height num_colors chars_per_pixel */
"    32    28       32            1",
/* colors */
"` c #181618",
". c #8f8b74",
"# c #e1cc47",
"a c #c4b15e",
"b c #545658",
"c c #cbcbcc",
"d c #6f7170",
"e c #abaeaf",
"f c #ac9e7c",
"g c #7d7b7d",
"h c #fcfe84",
"i c #fced17",
"j c #bcbebf",
"k c #353636",
"l c #8f9097",
"m c #858387",
"n c #dcdcdd",
"o c #eceded",
"p c #fcdb27",
"q c #6c6873",
"r c #c0b27c",
"s c #292a29",
"t c #4b464c",
"u c #fbfdfb",
"v c #d4be51",
"w c #a1a0a4",
"x c #f7ce37",
"y c #586274",
"z c #fcfa0a",
"A c #c9bd7c",
"B c #747a7f",
"C c #b4b4b4",
/* pixels */
"hhhhhhhhhhhhhhhhhhhhhhhhhhhhhhhh",
"hnwwwwwwwwwwwwwwwwwwwwwwwwwwwweh",
"hdskkkkkkkkkkkkkkkkkkkkkkkkkkk`h",
"hqbqdqddqddqddqddqddqddg..qddqsh",
"hdbBdBdBBdBBdBBdBBdBBBaxpxv.dB`h",
"hdqgmmmmmmgmmmmmgmmmgvppiip#.msh",
"hdql.llmlll.llmlll.lfxpizziialsh",
"hddwllwlwlwllwlwlwllapizzzzivlsh",
"hdgwwewwwwwewwwwwwewrpizzzzzvesh",
"hggeeeeeeeeeeeeeeeeeepizzzziresh",
"hd.CCCCCCCCCCCCCCCCCCrpizzi#CCkh",
"hgljjjjjjjeCejjjjjjjjjA###Ajjjkh",
"hglcjccwlecnjlecccjcccjcjccjcjkh",
"hglccjBnuuuuuueecccccccccccccnkh",
"hgwnleuuuuuuuuujecnnjeeCcnnncnkh",
"hgwBcuuuuuuuuuuujeclCouolcnnnnkh",
"hdbouuuouuoouuuuuwluuuuuuecnnnkh",
"hBenuoonuooCwnnooulnuuuuuuwcookh",
"hgwnnnnnnnnncnnnnnoBoooouuulnokh",
"hgwcnccncncnclCccnccBnonnounloth",
"hglcccccljcccCqCccccemnncnnnjwkh",
"hg.jjjjjwmjjjjeqCjjjjllccccccwsh",
"hdmCCCCCCmlCCCClgCCCCCBejjjjjjsh",
"hggewewwweglwwwwggwwewwqeeeCeCkh",
"hddwwwwwwwlqwwwwwqmwwwwlywwwwwsh",
"hgkttttttttttttttttttttttttttt`h",
"hnjjjjjjjjjjjjjjjjjjjjjjjjjjjjjh",
"hhhhhhhhhhhhhhhhhhhhhhhhhhhhhhhh"
};
