#define pb_j_addr.xbm_width 20
#define pb_j_addr.xbm_height 20
static unsigned char pb_j_addr.xbm_bits[] = {
0x00, 0x00, 0xf0, 
0x00, 0x00, 0xf0, 
0x00, 0x00, 0xf0, 
0x80, 0x3f, 0xf0, 
0x00, 0x0c, 0xf0, 
0x00, 0x0c, 0xf0, 
0x00, 0x0c, 0xf0, 
0x00, 0x0c, 0xf0, 
0x00, 0x0c, 0xf0, 
0x00, 0x0c, 0xf0, 
0x00, 0x0c, 0xf0, 
0x00, 0x0c, 0xf0, 
0x00, 0x0c, 0xf0, 
0x30, 0x0c, 0xf0, 
0x30, 0x0c, 0xf0, 
0x60, 0x06, 0xf0, 
0xc0, 0x03, 0xf0, 
0x00, 0x00, 0xf0, 
0x00, 0x00, 0xf0, 
0x00, 0x00, 0xf0, 
}; 
