#define pb_k_addr.xbm_width 20
#define pb_k_addr.xbm_height 20
static unsigned char pb_k_addr.xbm_bits[] = {
   0x00, 0x00, 0x00, 0x00, 0x00, 0x00, 0x00, 0x00, 0x00, 0xf0, 0x78, 0x00,
   0x60, 0x30, 0x00, 0x60, 0x18, 0x00, 0x60, 0x0c, 0x00, 0x60, 0x06, 0x00,
   0x60, 0x03, 0x00, 0xe0, 0x03, 0x00, 0xe0, 0x03, 0x00, 0x60, 0x07, 0x00,
   0x60, 0x0e, 0x00, 0x60, 0x1c, 0x00, 0x60, 0x38, 0x00, 0x60, 0x70, 0x00,
   0xf0, 0xf8, 0x00, 0x00, 0x00, 0x00, 0x00, 0x00, 0x00, 0x00, 0x00, 0x00};
