/* XPM */

static char * pb_output_xpm[] = {
/* width height ncolors cpp [x_hot y_hot] */
"32 32 14 1 0 0",
/* colors */
" 	s iconColor6	m white	c yellow",
".	s iconColor5	m black	c blue",
"X	s iconGray6	m black	c #636363636363",
"o	s iconGray2	m white	c #bdbdbdbdbdbd",
"O	s iconColor2	m white	c white",
"+	s iconGray4	m white	c #949494949494",
"@	s iconGray5	m black	c #737373737373",
"#	s iconGray3	m white	c #adadadadadad",
"$	s iconGray1	m white	c #dededededede",
"%	s iconGray7	m black	c #424242424242",
"&	s bottomShadowColor	m black	c #636363636363",
"*	s iconColor4	m white	c green",
"=	s iconGray8	m black	c #212121212121",
"-	c #383846464E4E",
/* pixels */
"                                ",
" .............................. ",
" .............................. ",
" .............................. ",
" .............................. ",
" .......XoOOOOOOOOOo+.......... ",
" .......@#OOOOOOOOO$%.......... ",
" .......+OOOOOOOOOO+%.......... ",
" .......+OooOOOOOoO+%.......... ",
" .......+OOOOOOOOOO+%.......... ",
" .......+OoooooOooO@%.......... ",
" ......&$OOOOOOOOOO@@@@@....... ",
" .....&o$OoooOOoooO%####o...... ",
" .....$@+OOOOOOOOOOX####oo..... ",
" ....$o@XXXXXXXXXXXXXoooooo.... ",
" ....OOOOOOOOOOOOOOOOOOOOO$.... ",
" ....Ooooooooooooo$XXXXXX$#.... ",
" ....O$$$$$$$$$$$$$X****X$#.... ",
" ....O$@@@@@@@@@@@@@XXXXX$#.... ",
" ....O$$$$$$$$$$$$$$$$$$$$#.... ",
" ....O$$$$$$$$$$$$$$$$$$$$#.... ",
" ....O$==============$$$$$#.... ",
" ....$$=$@@@@@@@@@@@=$$$$$#.... ",
" ....==$#############==%%%%.... ",
" ....%%+@@@@@@@@@@@@@%%%%%..... ",
" ....%=XXXXXXXXXXXXXX===%...... ",
" .....@%=============-@........ ",
" .............................. ",
" .............................. ",
" .............................. ",
" .............................. ",
"                                "};
