/* XPM */
static const char *pb_listing_xpm[] = {
/* width height num_colors chars_per_pixel */
"    32    32       32            1",
/* colors */
"` c #040404",
". c #7b868d",
"# c #b2c7d3",
"a c #ffec8b",
"b c #cae9ef",
"c c #a5a8a8",
"d c #e7e8e8",
"e c #cecfce",
"f c #3c4244",
"g c #d9f8fc",
"h c #acb4b7",
"i c #d2d9da",
"j c #8a9394",
"k c #e8fafb",
"l c #222825",
"m c #5f6664",
"n c #bedce2",
"o c #040284",
"p c #757b7d",
"q c #343a3b",
"r c #151815",
"s c #4f5959",
"t c #b7bab8",
"u c #746e6c",
"v c #c3c6c6",
"w c #d8e5e8",
"x c #dcdddc",
"y c #88898a",
"z c #544e54",
"A c #969899",
"B c #f9f9f9",
"C c #a4bcc0",
/* pixels */
"oooooooooooooooooooooooooooooooo",
"oaaaaaaaaaaaaaaaaaaaaaaaaaaaaaao",
"oaaaaaaaaaaaaBddBBBaaaaaaaaaaaao",
"oaaaaaaaaaaaaBxdxxiBBBBaaaaaaaao",
"oaaaaaaaaaaaaBiBkkBwnixdBBaaaaao",
"oaaaaaaaaaaaBwkkkkkkkkkwewaaaaao",
"oaaaaaaaaaaaBikkkkkkkkkkixaaaaao",
"oaaaaaaaaaaavwkkkkkkkkkgedaaaaao",
"oaaaaaaaaaavukkkkkkkkkkweBaaaaao",
"oaaaaaaaaaayjkkkgkgkgkkbvaaaaaao",
"oaaaaaaBeccz#kkgkkgkgkgvxaaaaaao",
"oaaaBtjActhqwkggggggggbjtaaaaaao",
"oaadctxxievyCbbgggggggbptaaaaaao",
"oaBcidddxxixtcjc#nnbggCmdaaaaaao",
"oaitdddddddxxxxvccAC##.mvexdaaao",
"oBtBddddxdxdBddxxxe#cA.jhAyAtdao",
"oahBBBBBdBxdxxddBdxxweeecAAyuhao",
"oBcBvAdBBBBBBdxxxxBdddiAAAjyyyao",
"oacdclqm.iBBBBBBBxxxxdccccAyyAao",
"oaceAr``rlsuvBBBBBBBdvAtcAAyyAao",
"oaAvjq.plr`rrqshBBBBBAetccAyyyao",
"oaAACwwhgv.fllrrltdkBAvtcAAyuAao",
"odvwdthtchhw#.sfqhxxxAvtccyyyBao",
"oBexdwtevhhchiw.qceevcvtcAycaaao",
"oaaaddxdivieeecpscCvctvtAAeaaaao",
"oaaaaaadddwdwvjAjcchA#vAcdaaaaao",
"oaaaaaaaaaBdBaditj.jjhAvBaaaaaao",
"oaaaaaaaaaaaaaaaBdwhpydBaaaaaaao",
"oaaaaaaaaaaaaaaaaaaBBdaaaaaaaaao",
"oaaaaaaaaaaaaaaaaaaaaaaaaaaaaaao",
"oaaaaaaaaaaaaaaaaaaaaaaaaaaaaaao",
"oooooooooooooooooooooooooooooooo"
};
