/* XPM */
static char * pb_mcd_xpm[] = {
/* width height ncolors cpp [x_hot y_hot] */
"32 32 11 1 0 0",
/* colors */
" 	s iconColor6	m white	c yellow",
".	s iconColor5	m black	c blue",
"X	s iconGray2	m white	c #bdbdbdbdbdbd",
"o	s iconGray1	m white	c #dededededede",
"O	s iconColor2	m white	c white",
"+	s iconGray3	m white	c #adadadadadad",
"@	s iconColor4	m white	c green",
"#	s iconGray4	m white	c #949494949494",
"$	s iconColor1	m black	c black",
"%	s iconGray6	m black	c #636363636363",
"&	s iconGray8	m black	c #212121212121",
/* pixels */
"                                ",
" .............................. ",
" .............................. ",
" .............................. ",
" ....XXoOOOoX.................. ",
" ....+@@#@#@XOO................ ",
" ....o@#@#@$@X@OX.............. ",
" ....%#@$@#@X##%O.............. ",
" ....+@#@#@$@#%OX.............. ",
" ....o#@$@#@#OO#@.............. ",
" ....%@#@#@OOX##X.............. ",
" ....o#@#OO%#X@#@.............. ",
" ....+@#O#&X#@##X.............. ",
" ....o#@O%%%%###@.............. ",
" ....%@#OOO####%%.............. ",
" ....o#OO@@XOOOOOOOOOOOOOOO.... ",
" .......O@@@@@@@@@@@@@@@@@@.... ",
" .......O@@$@@@@@$@@@@@@@@X.... ",
" .......O@@@@@$@@@@@#@@$@+$.... ",
" .......O@@@@@@@@$@@$@@@@@X.... ",
" .......O@@$@@@@@X@@@@@@@@@.... ",
" .......O@@@@@$@@@@@@@@$@@$.... ",
" .......O@@$@@@@@@@@@@@X@+@.... ",
" .......O@@#@@@@@$@@$@@@@@$.... ",
" .......O@@@@@$@@@@@@@@$@@X.... ",
" ........OO@@@#@@@@@@@@@@X@.... ",
" ..........XOOOOOOOOOOOOOOO.... ",
" .............................. ",
" .............................. ",
" .............................. ",
" .............................. ",
"                                "};
