/* XPM */
static const char *pb_machine_xpm[] = {
/* width height num_colors chars_per_pixel */
"    32    32       32            1",
/* colors */
"` c #040284",
". c #798382",
"# c #94cae4",
"a c #a3a7a6",
"b c #cecad2",
"c c #ffec8b",
"d c #a9b4b4",
"e c #444a44",
"f c #969493",
"g c #666a6d",
"h c #d0e8f4",
"i c #ece9e4",
"j c #d4d5cf",
"k c #747377",
"l c #b5b5b0",
"m c #898f90",
"n c #fbfcfa",
"o c #1c261c",
"p c #c1c5c2",
"q c #b8dcec",
"r c #595f5b",
"s c #e0f0f8",
"t c #dfdcd0",
"u c #adacac",
"v c #9b9b9a",
"w c #bbb3c2",
"x c #6c7577",
"y c #7d7c7d",
"z c #e2e4e4",
"A c #868685",
"B c #f0f0ed",
"C c #bcbcbd",
/* pixels */
"````````````````````````````````",
"`cccccccccccccccccccccccccccccc`",
"`cccccccccccccccccccccccccccccc`",
"`cccccccccccccccccccccccccccccc`",
"`cccccccccccccccccccccccccccccc`",
"`cccccccccccccccccccccccccccccc`",
"`cpCpClwlwwlwwlCpCpauBccccccccc`",
"`cunnnbnnnnnntBnnnnfnpvcccccccc`",
"`cpnnnbnnnnnnbnnnnnpnnCcccccccc`",
"`tbnnnbjaauCzbnnnnBCBnlcccccccc`",
"`Cnnnnbror.uCbnnnnCiiilcccccccc`",
"`unnnnbrrmCzbbnnnnCzzzucccccccc`",
"`CnnnnbgapsnbbnnnnCjjjacccccccc`",
"`CBnBnbfjBBspbBBnBlbpbacuCllluc`",
"`CBBBBblnBhqppBBBBfpCpfBaBCCufm`",
"`liBiibbshq#CpBiiiadddfuBilBjpA`",
"`lititbppCCdqwizizvaaamfiiCuvAa`",
"`lttttCBBssiBwttttvvvv.Ciavdllc`",
"`uttttwzzzzzzwttttfmmmxthyzcccc`",
"`ujbjbljtjjhjujbjbm...fzuAccccc`",
"`appppvbpppppvbpppAxxgpzylccccc`",
"`alulufaadadafuulukrgxjCycccccc`",
"`uuffykgkgkkmyvvvvkA.lzfgwllccc`",
"`CnnBBBBijvAgkgkrrejjbjgtjbdkry`",
"`bCaCuubizzztttjbjfbbpfkvv.Afaf`",
"`ccccccbwuwvufvvbbbbppCCClmlaxv`",
"`ccccccccccccccBwauuAvAAawA.Aic`",
"`cccccccccccccccccccccccplacccc`",
"`cccccccccccccccccccccccccccccc`",
"`cccccccccccccccccccccccccccccc`",
"`cccccccccccccccccccccccccccccc`",
"````````````````````````````````"
};
