/* XPM */

static char * pb_machine_xpm[] = {
/* width height ncolors cpp [x_hot y_hot] */
"32 32 11 1 0 0",
/* colors */
" 	s iconColor6	m white	c yellow",
".	s iconColor5	m black	c blue",
"X	s iconGray1	m white	c #dededededede",
"o	s iconGray3	m white	c #adadadadadad",
"O	s iconGray5	m black	c #737373737373",
"+	s iconColor7	m white	c cyan",
"@	s iconColor2	m white	c white",
"#	s iconColor1	m black	c black",
"$	s iconGray4	m white	c #949494949494",
"%	s iconGray2	m white	c #bdbdbdbdbdbd",
"&	s iconColor3	m black	c red",
/* pixels */
"                                ",
" .............................. ",
" .............................. ",
" .............................. ",
" ..........XXXXXXXXX........... ",
" ..........XXXXXXXXX........... ",
" ..........XoooooooX........... ",
" ...........ooooooo............ ",
" ...........ooooooo............ ",
" ............ooooo............. ",
" .............OOO.............. ",
" .............OOO.............. ",
" .............. ............... ",
" .............. ............... ",
" .........+++.. ............... ",
" .........+++.. .++............ ",
" .........+++....++............ ",
" .......@@+++++++++@@.......... ",
" .......@#o#####ooo#@..... .... ",
" ....XXXXXXXXXXXXXXXXXXXX.@.... ",
" ....XXXXXXXXXXXXXXXXXXXXo .... ",
" ........$$$$$$$$$$$$$....@.... ",
" ..........%%  %%%%%...... .... ",
" ..........%@%% %&&%........... ",
" ..........%@%% %&&%........... ",
" ..........%%@@%%%%%........... ",
" .........$$$$$$$$$$$.......... ",
" ......OOOOOOOOOOOOOOOOO....... ",
" .............................. ",
" .............................. ",
" .............................. ",
"                                "};
