/* XPM */
static const char *pb_macro_info_xpm[] = {
/* width height num_colors chars_per_pixel */
"    32    32       32            1",
/* colors */
"` c #141e88",
". c #4c86bc",
"# c #c4c6e4",
"a c none",
"b c #4750a4",
"c c #818cc2",
"d c #436aac",
"e c #90a0cc",
"f c #569ac5",
"g c #fcfefc",
"h c #3c62ac",
"i c #6c6fb4",
"j c #2c3997",
"k c #8094c4",
"l c #d1d9ec",
"m c #9caed4",
"n c #7488c1",
"o c #5a70b2",
"p c #1c3294",
"q c #487ab8",
"r c #5caad0",
"s c #92abd4",
"t c #35449c",
"u c #4f5fac",
"v c #697db9",
"w c #e3e2ee",
"x c #5592c4",
"y c #949acc",
"z c #7c7abc",
"A c #d4d2e4",
"B c #8c8ac4",
"C c #3c3e9c",
/* pixels */
"aaaaaaaaaaaaaaaaaaaaaaaaaaaaaaaa",
"aaaaaaaaaaaaaaaaaaaaaaaaaaaaaaaa",
"aaaaaaaaaaaaaaaaaaaaaaaaaaaaaaaa",
"aaaaaaaaaaaaaaaaaaaaaaaaaaaaaaaa",
"aaaaawzbbbbbbbbbbbbbbbbbbBwaaaaa",
"aaaawCnmmmmmmmmmmmmmmmmmmBCwaaaa",
"aaaaBnmmmmmmmybbbbbymmmmmeyiaaaa",
"aaaabeeeeeeeeuwgggwieeeeeeebaaaa",
"aaaabyyekeyyewgggggweeyyeeebaaaa",
"aaaabkkkkkkkkgggggggkkkkkkkbaaaa",
"aaaabckkkkkkkewgggwsckkkkkkbaaaa",
"aaaabcnnnnnncnnncnvinnnnnnnbaaaa",
"aaaabnnnnnubbtjj``bbnnnnnnnbaaaa",
"aaaabvvvvvuckm#lggggvvvvvvvbaaaa",
"aaaabCuovvggggggggggvvvvoutbaaaa",
"aaaabCttbbncAgggggggoouttttbaaaa",
"aaaabbttbtbbtgggggggbttbtbtbaaaa",
"aaaabbhhbhhhbgggggggbhhbhhbbaaaa",
"aaaabhhhhhhhhggggggghhhhhhhbaaaa",
"aaaabdddhhhdhgggggggddhdhdhbaaaa",
"aaaabdqdqqqdqgggggggqdqqdqqbaaaa",
"aaaabqq.qqq.qgggggggqqqq.qqbaaaa",
"aaaab.....dhtgggggggthd....baaaa",
"aaaabxxxxfyyggggggggwycxxxxbaaaa",
"aaaabffffsgggggggggggggsfffbaaaa",
"aaaaz.rrrfrfrrrrrrrrrrrfrrxiaaaa",
"aaaawCxrrrrrrrrrrrrrrrrrrfpAaaaa",
"aaaaawibbbbbbbbbbbbbbbbbbiAaaaaa",
"aaaaaaaaaaaaaaaaaaaaaaaaaaaaaaaa",
"aaaaaaaaaaaaaaaaaaaaaaaaaaaaaaaa",
"aaaaaaaaaaaaaaaaaaaaaaaaaaaaaaaa",
"aaaaaaaaaaaaaaaaaaaaaaaaaaaaaaaa"
};
