/* XPM */
static char * mach_comp_xpm[] = {
/* width height ncolors cpp [x_hot y_hot] */
"18 18 10 1 0 0",
/* colors */
" 	s none	m none	c none",
".	s iconGray4	m white	c #949494949494",
"X	c #808080800000",
"o	s iconColor1	m black	c black",
"O	c #BFBFBFBFBFBF",
"+	c #000000000000",
"@	c #808080808080",
"#	s iconColor6	m white	c yellow",
"$	s iconColor2	m white	c white",
"%	c #FFFFFFFF0000",
/* pixels */
"                  ",
"       ....       ",
"   Xoo O++@ X++   ",
"   X##+@$@+X+$XX  ",
"   XX%X@@@++$%XX  ",
"   XX$X@$@+X%XXo  ",
" +++X%+@$@++$XX++ ",
"X$%$%+$@$@+$+$%$%+",
"XXXX$%X++++X$%+XX+",
"XXXo%$%#X#X$%$+XX+",
" Xo%##X%$%$X#%$++ ",
" o##XXXX%$+XXX%$+ ",
" XX+XX+X$%+++XXX+ ",
" XX+X+ X%$+ X+XX+ ",
"  +++  XXX+   ++  ",
"       +XX+       ",
"        ++        ",
"                  "};
