/* XPM */
static const char *pb_mcd_xpm[] = {
/* width height num_colors chars_per_pixel */
"    32    32       32            1",
/* colors */
"` c #14130f",
". c #848586",
"# c #c3c8dc",
"a c #4c4e64",
"b c #ffec8b",
"c c #9ea5b8",
"d c #606e94",
"e c #d2d8ed",
"f c #babac6",
"g c #e6e8f7",
"h c #f9fafc",
"i c #082798",
"j c #334ba8",
"k c #737582",
"l c #93929b",
"m c #313331",
"n c #dedce7",
"o c #040284",
"p c #4458ae",
"q c #1e39a0",
"r c #7283c6",
"s c #5065b7",
"t c #6c7dbf",
"u c #a7afd3",
"v c #8c9ad4",
"w c #585a60",
"x c #041e94",
"y c #6073c0",
"z c #d0ccd8",
"A c #3f3d40",
"B c #807e80",
"C c #8490cc",
/* pixels */
"oooooooooooooooooooooooooooooooo",
"obbbbbbbbbbbbbbbbbbbbbbbbbbbbbbo",
"obbbbbbbbbbbbbbbbbbbbbbbbbbbbbbo",
"obbbbbbbbbbbbbbbbbbbbbbbbbbbbbbo",
"obhuuuuuuuuuuu#gbbbbbbbbbbbbbbbo",
"obgiCttttttttrtCgbbbbbbbbbbbbbbo",
"obnphhhhhhhhhhcjfbbbbbbbbbbbbbbo",
"obgjhl.g#wzherpafbbbbbbbbbbbbbbo",
"obnjhnzgg#hrjdckfbbbbbbbbbbbbbbo",
"obgjhhhhhhtqkcfkfbbbbbbbbbbbbbbo",
"obgjnAlhA.iwBcfkfbbbbbbbbbbbbbbo",
"obnjhhhhhhijdlfkfbbbbbbbbbbbbbbo",
"obgjh#nhnnifjpkwcneneneneneegbbo",
"obnjfwfhlwxhhfCtppppppppppppqbbo",
"obgjhhgghhihuehhhhhhhhhhhhhhqhbo",
"obnjgngcchxh.fhghhhhhhhhhhhhqhbo",
"obgjgngcfhxhggghggk.hghgglBhqhbo",
"obnjhgghhhinw#hhhgffhhhhhzfhqhbo",
"obgxqqqqqqih#nuAuhhhghhhghhhqhbo",
"obbhghhghbxhghnznzmAhn`.h.`zqhbo",
"obbbbbbbbbxgA.gggghhhghhhhhhqhbo",
"obbbbbbbbbxgnec`cggzggngggnhqhbo",
"obbbbbbbbbq#f#ggnglA#fAlhlmnqhbo",
"obbbbbbbbbpuwleengghgghgghhhqhbo",
"obbbbbbbbbsr#eeeeu.#nggggf.gqhbo",
"obbbbbbbbbessvu#eu.zggghh#lgqhbo",
"obbbbbbbbbbevryspsspspspssssjbbo",
"obbbbbbbbbbbbgee##########z#ebbo",
"obbbbbbbbbbbbbbbbbbbbbbbbbbbbbbo",
"obbbbbbbbbbbbbbbbbbbbbbbbbbbbbbo",
"obbbbbbbbbbbbbbbbbbbbbbbbbbbbbbo",
"oooooooooooooooooooooooooooooooo"
};
