#define pb_m_addr.xbm_width 20
#define pb_m_addr.xbm_height 20
static unsigned char pb_m_addr.xbm_bits[] = {
   0x00, 0x00, 0x00, 0x00, 0x00, 0x00, 0x00, 0x00, 0x00, 0xe0, 0xe0, 0x00,
   0xc0, 0x60, 0x00, 0xc0, 0x71, 0x00, 0xc0, 0x71, 0x00, 0xc0, 0x7b, 0x00,
   0x40, 0x6b, 0x00, 0x40, 0x6f, 0x00, 0x40, 0x66, 0x00, 0x40, 0x66, 0x00,
   0x40, 0x60, 0x00, 0x40, 0x60, 0x00, 0x40, 0x60, 0x00, 0x40, 0x60, 0x00,
   0xe0, 0xf0, 0x00, 0x00, 0x00, 0x00, 0x00, 0x00, 0x00, 0x00, 0x00, 0x00};
