/* XPM */

static char * pb_marker_xpm[] = {
/* width height ncolors cpp [x_hot y_hot] */
"170 25 10 1 0 0",
/* colors */
" 	s none	m none	c none",
".	s iconColor3	m black	c red",
"X	s iconColor1	m black	c black",
"o	s iconColor2	m white	c white",
"O	c #FFFF00000000",
"+	s iconGray4	m white	c #949494949494",
"@	s iconColor7	m white	c cyan",
"#	s bottomShadowColor	m black	c #636363636363",
"$	s iconColor5	m black	c blue",
"%	c #00000000FFFF",
/* pixels */
" ........................................................................................................................................................................ ",
"..                                                                                                                                                                      ..",
".                                                                                                                                                                        .",
".                                                                                                                                                                        .",
".                                                                                                                                                                        .",
".  XXXXXXXXXXXXXXX                                                                                                                                                       .",
".  XooooooXOOOOOOX                                                                                                                                                       .",
".  Xoooo++XOOOOOOX                                                                                                                                                       .",
".  XoooX.OOOOOOOOX                                                                                                                                                       .",
".  XoooXOOOOOXX.OX                                                                                                                                                       .",
".  Xoooo++XOX@@X.X                                                                                                                                                       .",
".  Xoooooo#OX@@X.X                                                                                                                                                       .",
".  XXXooX###X@@XXX                                                                                                                                                       .",
".  X$XooX%#@@@@@@X                                                                                                                                                       .",
".  X$XooX%X++@@@@X                                                                                                                                                       .",
".  X%$#X%%%%%#@@@X                                                                                                                                                       .",
".  X%%%%%%%%$#@@@X                                                                                                                                                       .",
".  X%%%%%%X++@@@@X                                                                                                                                                       .",
".  X%%%%%%X@@@@@@X                                                                                                                                                       .",
".  XXXXXXXXXXXXXXX                                                                                                                                                       .",
".                                                                                                                                                                        .",
".                                                                                                                                                                        .",
".                                                                                                                                                                        .",
"..                                                                                                                                                                      ..",
" ........................................................................................................................................................................ "};
