#define pb_n_addr.xbm_width 20
#define pb_n_addr.xbm_height 20
static unsigned char pb_n_addr.xbm_bits[] = {
   0x00, 0x00, 0x00, 0x00, 0x00, 0x00, 0x00, 0x00, 0x00, 0xe0, 0x70, 0x00,
   0xc0, 0x21, 0x00, 0xc0, 0x21, 0x00, 0xc0, 0x23, 0x00, 0x40, 0x23, 0x00,
   0x40, 0x27, 0x00, 0x40, 0x26, 0x00, 0x40, 0x2e, 0x00, 0x40, 0x2c, 0x00,
   0x40, 0x3c, 0x00, 0x40, 0x38, 0x00, 0x40, 0x38, 0x00, 0x40, 0x30, 0x00,
   0xe0, 0x30, 0x00, 0x00, 0x00, 0x00, 0x00, 0x00, 0x00, 0x00, 0x00, 0x00};
