/* XPM */
static const char *pb_preview_xpm[] = {
/* width height num_colors chars_per_pixel */
"    24    24       16            1",
/* colors */
"` c #4e5661",
". c #79879f",
"# c #ecca6c",
"a c #f2f4f9",
"b c #dca428",
"c c none",
"d c #787a7a",
"e c #a5acb9",
"f c #ccd1e0",
"g c #bcbbd3",
"h c #606b94",
"i c #9296bd",
"j c #6e75b6",
"k c #969895",
"l c #ecb941",
"m c #4b5aa1",
/* pixels */
"cccccccccccccccccccccccc",
"cmmmmmmmmmmhfccccccccccc",
"cmaaaaaaaaajjfcccccccccc",
"cmaaaaaaaaaigjfccccccccc",
"cmaaaaaaaaghiijfcccccccc",
"cmaaaaaad``hdh`hfccccccc",
"cmaaaag``eaeegihmacccccc",
"cmagh```efaafaaajhaccccc",
"cmaaad`faaaaaaaaeheccccc",
"cmaaf`daaaaaaaaag.mccccc",
"cmae``kfgkkeeefagfmfcccc",
"cmaai`gaaaaaaaaagfmfcccc",
"cmfak`faaaaaaaaagf`fcccc",
"cmai``kgeeeeeefafemacccc",
"cmfaa`.aaaaaaaaag.hccccc",
"cmfffe`gaaaaaaaag`eccccc",
"cmfeh```keeeegaedblacccc",
"cmfffaaihefaagd`llddcccc",
"cmfffffafeh```delle`dccc",
"cmggffffaaaaaaaa.kfe`dcc",
"cmmmmmmmmmmmmmmmmikfk`dc",
"ccaffffffggggggggfakfe`e",
"cccccccccccccccccccaefkg",
"ccccccccccccccccccccagfa"
};
