#define pb_O_addr.xbm_width 20
#define pb_O_addr.xbm_height 20
static unsigned char pb_O_addr.xbm_bits[] = {
   0x00, 0x00, 0x00, 0x00, 0x00, 0x00, 0x00, 0x00, 0x00, 0x00, 0x07, 0x00,
   0xc0, 0x1d, 0x00, 0x60, 0x30, 0x00, 0x60, 0x30, 0x00, 0x30, 0x60, 0x00,
   0x30, 0x60, 0x00, 0x30, 0x60, 0x00, 0x30, 0x60, 0x00, 0x30, 0x60, 0x00,
   0x30, 0x60, 0x00, 0x60, 0x30, 0x00, 0x60, 0x30, 0x00, 0xc0, 0x1d, 0x00,
   0x00, 0x07, 0x00, 0x00, 0x00, 0x00, 0x00, 0x00, 0x00, 0x00, 0x00, 0x00};
