/* XPM */

static char * pb_open_xpm[] = {
/* width height ncolors cpp [x_hot y_hot] */
"24 24 6 1 0 0",
/* colors */
" 	s none	m none	c none",
".	s iconColor1	m black	c black",
"X	s iconColor6	m white	c yellow",
"o	s iconGray6	m black	c #636363636363",
"O	s iconGray5	m black	c #737373737373",
"+	s iconGray4	m white	c #949494949494",
/* pixels */
"                        ",
"                        ",
"                ...     ",
"               .   . .  ",
"                    ..  ",
"   ........        ...  ",
"  .XXXXXXXX.            ",
" .XXXXXXXXXX......      ",
" .XXXXXXXXXXXXXXX.      ",
" .XXXXX................ ",
" .XXXXX.XOXoXoXoXoXOX+. ",
" .XXXX.XOXoXoXoXoXOXO.  ",
" .XXXX.+XOXoXoXoXOXOX.  ",
" .XXX.+XOXoXoXoXOXOX.   ",
" .XXX.XoXOXoXoXOXOX+.   ",
" .XX.XOXOXOXOXOXOXO.    ",
" .XX.OXOXOXOXOXOXOX.    ",
" .X.OXOXOXOXOXOXOX.     ",
" .X.XOXOXOXOXOXOXO.     ",
" ..XOXOXOXOXOXOX+.      ",
" .................      ",
"                        ",
"                        ",
"                        "};
