/* XPM */

static char * optional_xpm[] = {
/* width height ncolors cpp [x_hot y_hot] */
"10 20 2 1 0 0",
/* colors */
" 	s none	m none	c none",
".	s iconColor3	m black	c red",
/* pixels */
"          ",
"          ",
"   ...    ",
"  .. ..   ",
" ..   ..  ",
" .     .  ",
" ..   ..  ",
"  .. ..   ",
"   ...    ",
"          ",
"          ",
"          ",
"          ",
"          ",
"          ",
"          ",
"          ",
"          ",
"          ",
"          "};
