/* XPM */

static char * pb_prog_xpm[] = {
/* width height ncolors cpp [x_hot y_hot] */
"32 32 8 1 0 0",
/* colors */
" 	s iconColor6	m white	c yellow",
".	s iconColor5	m black	c blue",
"X	s iconGray3	m white	c #adadadadadad",
"o	s iconGray1	m white	c #dededededede",
"O	s iconColor2	m white	c white",
"+	s iconGray2	m white	c #bdbdbdbdbdbd",
"@	s iconColor7	m white	c cyan",
"#	s iconGray6	m black	c #636363636363",
/* pixels */
"                                ",
" .............................. ",
" .............................. ",
" .............................. ",
" .............................. ",
" .........XoooooX.............. ",
" ........oOOOOOOOo............. ",
" ........+oooooooO............. ",
" ........+XXXXX+oO............. ",
" ........+XXXXX+oO............. ",
" ....@@@.+XXXXX+oO.@@@...@@.... ",
" ........+XXXXX+oO..@...@...... ",
" ......@.+XXXXX+oo.@...@....... ",
" .....@...++++++o.@...@...@.... ",
" ....@...@..# O..@...@...@..... ",
" .......@... #O.@...@...@...... ",
" ......@....  +....@...@....... ",
" .....@...@.  o...@...@...@.... ",
" ....@...@..# O..@...@...@..... ",
" .......@... #O.@...@...@...... ",
" ......@....  +....@...@....... ",
" .....@...@.o o...@...@...@.... ",
" ....@...@.......@...@...@..... ",
" .......@...@...@...@...@...... ",
" ......@...@...@...@...@....... ",
" .....@...@...@...@...@...@.... ",
" ....@@@@@...@@@@@...@@@@@..... ",
" .............................. ",
" .............................. ",
" .............................. ",
" .............................. ",
"                                "};
