#define pb_p_addr.xbm_width 20
#define pb_p_addr.xbm_height 20
static unsigned char pb_p_addr.xbm_bits[] = {
   0x00, 0x00, 0x00, 0x00, 0x00, 0x00, 0xe0, 0x1f, 0x00, 0xc0, 0x30, 0x00,
   0xc0, 0x60, 0x00, 0xc0, 0x60, 0x00, 0xc0, 0x60, 0x00, 0xc0, 0x60, 0x00,
   0xc0, 0x30, 0x00, 0xc0, 0x1f, 0x00, 0xc0, 0x00, 0x00, 0xc0, 0x00, 0x00,
   0xc0, 0x00, 0x00, 0xc0, 0x00, 0x00, 0xc0, 0x00, 0x00, 0xe0, 0x03, 0x00,
   0x00, 0x00, 0x00, 0x00, 0x00, 0x00, 0x00, 0x00, 0x00, 0x00, 0x00, 0x00};
