/* XPM */
static const char *pb_prog_xpm[] = {
/* width height num_colors chars_per_pixel */
"    32    32       32            1",
/* colors */
"` c #04020a",
". c #8384b1",
"# c #4b4b4a",
"a c #c6cae2",
"b c #3949bd",
"c c #ffec8b",
"d c #040284",
"e c #a5a6bd",
"f c #5d68c8",
"g c #d8d8e1",
"h c #28283b",
"i c #6f6d7f",
"j c #7074b2",
"k c #8790de",
"l c #e6e7e9",
"m c #fafaf6",
"n c #cad6f7",
"o c #24287c",
"p c #353b87",
"q c #474993",
"r c #5159c4",
"s c #040246",
"t c #9c9edc",
"u c #1c31ca",
"v c #b1b5df",
"w c #353437",
"x c #9a9b9d",
"y c #717be9",
"z c #171621",
"A c #b6b5b7",
"B c #14175d",
"C c #2c3ed0",
/* pixels */
"dddddddddddddddddddddddddddddddd",
"dccccccccccccccccccccccccccccccd",
"dccccccccccccccccccccccccccccccd",
"dccccccccccccccccccccccccccccccd",
"dccccgAaagcccccccccccccccccccccd",
"dccl.eviqreccccccccccccccccccccd",
"dccauyk..ipmcccccccccccccccccccd",
"dccgftejrpsmcccccccccccccccccccd",
"dccarngiqB`mcccccccccccccccccccd",
"dccaCngiqodmcccccgz``````````##d",
"dccaCvtrff#mcccl#`igllgllgllglcd",
"dccaufkejpsmclxw#acccccccccccccd",
"dccgjnaiposmgw`#xAAAAAAAAAAAAacd",
"dccaCggfqpBm.wwwwhhhhhhhhhh``#cd",
"dccaukkjyrhmmglllllllgllla#wigcd",
"dccgrkk.fpsmccccccccccccA##xmccd",
"dccnraaiqBswhwwwhwwhwwwhzigccccd",
"dccaCllibpoxxxxxxxxxxxxxAmcccccd",
"dccauyrykjhmcccccccccccccccccccd",
"dc#`rev.qBsmcccccccccccccccccccd",
"di`zrngiqoB```````zmcccccccccccd",
"dllvCavfrbqglllxwwAccccccccccccd",
"dccnuyf.yismmgihilcccccccccccccd",
"dccarvajqBslxw#Acccccccccccccccd",
"dccabngiqos#h.lccccccccccccccccd",
"dccauagiqBsiaccccccccccccccccccd",
"dcclt.jqqjamcccccccccccccccccccd",
"dccmmlmlmccccccccccccccccccccccd",
"dccccccccccccccccccccccccccccccd",
"dccccccccccccccccccccccccccccccd",
"dccccccccccccccccccccccccccccccd",
"dddddddddddddddddddddddddddddddd"
};
