/* XPM */

static char * post_builder2_xpm[] = {
/* width height ncolors cpp [x_hot y_hot] */
"100 100 26 1 0 0",
/* colors */
" 	s none	m none	c none",
".	s iconGray1	m white	c #dededededede",
"X	s iconGray4	m white	c #949494949494",
"o	s iconColor2	m white	c white",
"O	s iconColor1	m black	c black",
"+	s iconGray5	m black	c #737373737373",
"@	s iconGray2	m white	c #bdbdbdbdbdbd",
"#	s iconGray8	m black	c #212121212121",
"$	s iconGray6	m black	c #636363636363",
"%	c #CCCC99996666",
"&	c #CCCCCCCCCCCC",
"*	s iconColor7	m white	c cyan",
"=	c #999966666666",
"-	s iconColor5	m black	c blue",
";	c #999999999999",
":	c #333333336666",
">	s iconGray7	m black	c #424242424242",
",	s bottomShadowColor	m black	c #636363636363",
"<	c #333333330000",
"1	c #666666663333",
"2	c #999966663333",
"3	c #FFFFFFFF0000",
"4	s iconColor6	m white	c yellow",
"5	s iconColor3	m black	c red",
"6	s iconGray3	m white	c #adadadadadad",
"7	c #333399999999",
/* pixels */
"                                                                                                    ",
"                                                                    .XXXXXXXXXXXXXXXXXXXXXX         ",
"                                                                  ..ooooooooooo.o..........XX       ",
"                                                                 .oooooooooooo.o.............O      ",
"                                                                 .ooXXXoooooooo.o.......XXX.o+@     ",
"                                                                .ooXooo#oXoXoXoXoXoXoXo#oo@X.@$     ",
"                                                                .ooXo.oo#XXXXXXXXXXXXX#...oX.@$     ",
"                                                                .ooXooXo#OOOOOOOOOOOOO#.X..X.@$     ",
"                                                                 .ooXX.o#oooooo.o.....#.oXX.oO@     ",
"                                                                 .oooooo#ooooo.o.........o.o@O      ",
"                                                                  OooooOoooX.ooX@..X@..O..@@O@      ",
"                                                                   OOOOXoooX.ooX@..X@..OOOOO@       ",
"                                                                     .@XoooX.ooX@..X@..O@@          ",
"                                                                      .XoooX.ooX@..X@..O@           ",
"                                                                       XoooX.ooX@..X@..O            ",
"                                                                       .oooX.ooX@..X@..O            ",
"                                                                       .oooX.ooX@..X@..O            ",
"                                                                       .oooX.ooX@..X@..O            ",
"                                                                       .oooX.ooX@..X@..O            ",
"                                                                       .oooX.ooX@..X@..O            ",
"                                                                       .oooX.ooX@..X@..O            ",
"                                                                       .oooX.ooX@..X@..O            ",
"                                                                       .oooX.ooX@..X@..O            ",
"                                                                       .oooX.ooX@..X@..O            ",
"                                                                       .oooX.ooX@..X@..O            ",
"                                                                       .oooX.ooX@..X@..O            ",
"                                                                       .oooX.ooX@..X@..O            ",
"                                                                       .oooX.ooX@..X@..O            ",
"                           %&&    *====&                               .oooX.ooX@..X@..O            ",
"                         &---*;  =:-----:&                             .oooX.ooX@..X@..O            ",
"                         *->-:-==:->-:->--                             .oooX.ooX@..X@..O            ",
"                         ;,->-:X>->->->->-;                            .oooX.ooX@..X@..O            ",
"                        &>---:X----:,:-:--:&                           .oooX.ooX@..X@..O            ",
"                        :--::>---:::===+::-&                           .oooX.ooX@..X@..O            ",
"                        =:::=;<,1=%%O,,1=<<                            .oooX.ooX@..X@..O            ",
"                            :=%&<==,,,,<%==                            .oooX.ooX@..X@..O            ",
"                           ;=&1&2&&=,,,1==<;;;;;                       .oooX.ooX@..X@..O            ",
"                          &:%%==%&&&=+<&&&&.&.&%<&                     .oooX.ooX@..X@..O            ",
"                         ;<1=22 &&&&&&&&@&&&.&.&.<                     .oooX.ooX@..X@..O            ",
"                        &11:,%2&&&&&&&@@@&&&&&&.&=                     .oooX.ooX@..X@..O            ",
"                        &%1=221&&&&&&&=%&&&&&&&&.:                     .oooX.ooX@..X@..O            ",
"             &&;;;;&&& &;<2211&&&&;1@&%=&&&&&&&&=;                     .oooX.ooX@..X@..O            ",
"            =:%@.&%%%=<<11<=%&&&&%=<%&&<=&&&&&%==                      .oooX.ooX@..X@..O            ",
"           =@.&.&.&.&.&=1211&&&&@&&<<@&&=12:===&                       .oooX.ooX@..X@..O            ",
"          =@.&.&.&.&&&&&<22<X&&&&&&&=1%&&&&;                           .oooX.ooX@..X@..O            ",
"         ;@&&&&&&&&&&&&&=121<&&&&&&&&%11=%1<%                          .oooX.ooX@..X@..O            ",
"        &1&&&&&&&&&&&&&&%122<&&&&&&&&&&&%% X=%                         .oooX.ooX@..X@..O            ",
"        &%&&&&&&&&&&&&&&&<22<&&&&&&&&&&&&&&@@1%                        .oooX.ooX@..X@..O            ",
"        ;%&&&&&&&&&&&&&&&<22<=&&&&&&&&&&&&+%&&;                        .oooX.ooX@..X@..O            ",
"        ;&&&&&&&&&&&&&&&&<221<&&&&&&&&&&&&%1%%=                        .oooX.ooX@..X@..O            ",
"        ;&&&&&&&&&&&&&&&&<222<<%&&&&&&&&&&&%1<&                        .oooX.ooX@..X@..O            ",
"        ;&&&&&&&%%&&&&&&&<222111&&&&&&&&&&&%<=;                        .oooX.ooX@..X@..O            ",
"        ;&&&&&&&1%&&&&&&%1222131%&&%&&&&&%<<11==                       .oooX.ooX@..X@..O            ",
"        ;&&&&&&%1&&&&&&&<222213311%&%%%=<1122<&==                      .oooX.ooX@..X@..O            ",
"       ;=&&&&&&<%&&&&&&=122221333312222132122<%&=;                     .oooX.ooX@..X@..O            ",
"       ;&&&&&&=<<%&&&%<12222213333333333321221%.&=&                    .oooX.ooX@..X@..O            ",
"     ;:%&&&&&%<21<<<<<1222221453353%55%3321221%&.&<&                   .oooX.ooX@..X@..O            ",
"    ;:&&&&&&&%12222222222222135335353453321221%&&.&;                   .oooX.ooX@..X@..O            ",
"   &:&&&&&&&&%<2222222222222<35335353333321221%&&&&%=                  .oooX.ooX@..X@..O            ",
"   ;%&&&&&&&&&<2222222222222<35335353554+<1221%&&&&&=;                 .oooX.ooX@..X@..O            ",
"   ;&&&&&&&&&&=1222222222222135445354454,,1221%&&&&&&;                 .oooX.ooX@..X@..O            ",
"   =&&%&&&&&&&%122222222222123655%3655%4,,1221%&&&&&&=                 .oooX.ooX@..X@..O            ",
"   &=&2&&&&&&&2222222222222<33333333334+,,2221==&&&&&=                 .oooX.ooX@..X@..O            ",
"    ;=<&&&&&&%<<22222222222<3333333333<,,<222<1%&&&&&=                 .oooX.ooX@..X@..O            ",
"      &=&%&&&=<<<<1222222211333333334+,,,<22<%&&&&&&&=                 .oooX.ooX@..X@..O            ",
"       &=<&&&<<>2><<<2222211%4%333334,,,,<2<%&&&&&&&&<                 .oooX.ooX@..X@..O            ",
"         &<%%<1<<<>2<<<122<2<<<1222221,,,<<%&&&&&&&&&;                 .oooX.ooX@..X@..O            ",
"           ;:<22<1<<<>2<<<<<<122222222<<<<1&&&&&&&&&=;                 .oooX.ooX@..X@..O            ",
"            &,<<,1221<<<2<<<:7:<<<<11111<,%&&&&&&&&%<                  .oooX.ooX@..X@..O            ",
"            &77771222221<<<2<<:777777,,,<<<=&&&&&&&1;                  .oooX.ooX@..X@..O            ",
"             =777<<22222<7,<<>2<<,7<=,,%&&&=1&&&&&%=                   .oooX.ooX@..X@..O            ",
"             ;77777<122<7777:<<>21,%&<<=&&&&=&&&&%<& &&&;<;            .oooX.ooX@..X@..O            ",
"             &:77777:<,77777777:,<1&<%&<<2<=&&&&%<& &=<<<oo;&          .oooX.o.X@..X@..O            ",
"              ;:777777777:+777777:=&=&%<%&&<<=%1;  ;<1<,<o4o<;         .oooX.ooX@..X@..O            ",
"               =:77777777+$7777777<==&==&&&<22,,,,,<ooo4%<ooo1=        .oooX.o.X@..X@..O            ",
"                =:77777777:77777777::&=%&&&<<<,,,<<oo444%1o4oo1        .oooX.ooX@..X@..O            ",
"                 ;<7777777:777777777:=1<&&%,,,,,<<1<<<<o%<<<4<2:       .oooX.o.X@..X@..O            ",
"                  &<:77777+::::::7777,;&;;;;,,,,<<122<1<<<<o<2=o<&     .oooX.ooX@..X@..O            ",
"                    <777777+ &<:777777:;    <,,,,,,,,<<oo1ooo<<o4;     .oooX.o.X@..X@..O            ",
"                    ;777777+   &<777777:;   ;,,,,,,,,,,,,,<<<1o<<<&    .oooX..oX@..X@..O            ",
"                    &777777+    &<777777:;   &<,,,,,,,,,,,,,,,<<1<,;   .oooX.o.X@..X@..O            ",
"                    &777777+      <777777=      ;=,,,,,,,,,,,,,,,,,,   .oooX..oX@..X@..O            ",
"                    &:77777+      ;:7:7::;            ;=====<,,,,,=;   .oooX.o.X@..X@..O            ",
"                    &;=<<::&      &<:&::                               .oooX..oX@..X@..O            ",
"                      &%&:;       &:&%<&                               .oo.X.o.X@..X@..O            ",
"                      &%&;       &<%%<&                                .oooX..oX@..X@..O            ",
"                      &%&;       :%&:                                  .oo.X.o.X@..X@..O            ",
"                      &%&;      ;%&1&                                  .o.oX..oX@..X@..O            ",
"                      &%&=     ;=&%<==:;;;=;; ;;                       ..o.X.o.X@..X@..O            ",
"                      &%&%&  &<%&&6666666=<111<%<                      .o.oX..oX@..X@..O            ",
"                     ;<%&%<; ;%&6&&&&&&&&&&==&%==                      ....X...X@..X@..O            ",
"                 ;;;=1&&&&&=;;%&&&&&&&&&&&&&&&&&:                    ..XXXXXXXXXXXXXXXXX+O          ",
"                   =%12=2%=21<=;;;;=<=;;;:1<;:1<=;                   ooooo.o............+O          ",
"                 <=,1%&<&&1&&%=;$$$$&=$$$$$$$$$$$$ $$$$$$$$$        oXXXXXXXXXXXXXXXXXXXXOO         ",
"                 &++&=1<<=,1=,&  XXXXX$$$$$$$$$$$$$$$$$$$$$$$$$$$ $ .ooooooo.o...........+O         ",
"                   ;XXXXXXXX XXX               $ $$ $$$$$$$ $      .XXXXXXXXXXXXXXXXXXXXXXOO        ",
"                                                                  oooooooooooo.o..........6+O       ",
"                                                                 ..oooooooooooo.o..........6+$$$    ",
"                                                                 @OOOOOOOOOOOOOOOOOOOOOOOOOOO$$$$$$$",
"                                                                  @$$$$$$$$$$$$$$$$$$$$$$$$$$$$$$$  "};
