/* XPM */
static char *RanchInHand24x24CLR_xpm[] = {
/* width height num_colors chars_per_pixel */
"    24    24       16            1",
/* colors */
"` c #21221c",
". c #969282",
"# c #d1d1bc",
"a c #5a5852",
"b c #ece7c2",
"c c #787565",
"d c #fcfed8",
"e c #3d3a30",
"f c #b3af9f",
"g c #898370",
"h c #686659",
"i c #4a4a45",
"j c #e7e1c2",
"k c #c1beac",
"l c #302d27",
"m c #a6a48d",
/* pixels */
"dddddddddddddddddddddddd",
"ddddddddddddddddddbddddd",
"ddddddddddddddddkicgdddd",
"ddddddddddddddd#lahddddd",
"ddddddddddddddbicadddd#d",
"ddddddddddddddfeaafddecd",
"dddd.i.dddddddfhi`gmgicd",
"dddakjccdbbdddciiaalec#d",
"ddcfjjjmcgmcha`haihilfdd",
"dffbjbjbbjjjjfceiieikddd",
"dcfjbbbbbjbjjbjhcddddddd",
"ddcjbjbjbbjbjbbjhddddddd",
"dd#gjbbbjfkemgbbhddddddd",
"dddmmbjjecaljjgjgjdddddd",
"ddddajjcclcjmjbe.ddddddd",
"ddddafciijjjjkgkdddddddd",
"dddddhiamjj#jfcddddddddd",
"ddddcaefjjjbcadddddddddd",
"dddhheaekj.edddddddddddd",
"dd#aiciigleddddddddddddd",
"ddfallhddddddddddddddddd",
"dddahhdddddddddddddddddd",
"dddd#ddddddddddddddddddd",
"dddddddddddddddddddddddd"
};
