/* XPM */

static char * sub_seq_xpm[] = {
/* width height ncolors cpp [x_hot y_hot] */
"15 17 10 1 0 0",
/* colors */
" 	s none	m none	c none",
".	c #000000000000",
"X	s iconColor1	m black	c black",
"o	c #FFFF00000000",
"O	s iconColor3	m black	c red",
"+	c #FFFFFFFF0000",
"@	s iconColor4	m white	c green",
"#	s iconColor6	m white	c yellow",
"$	s iconColor7	m white	c cyan",
"%	s iconColor5	m black	c blue",
/* pixels */
"               ",
"    ...........",
"   XoooOX++++..",
"  ...........@.",
" X+++#X$$$$..@.",
"...........+.@.",
"X$$$$X%%%%.+.@.",
"X$$$$X%%%%.+.X.",
"X$$$$X%%%%.+.O.",
"X$$$$X%%%%.X.o.",
"XXXX.XXXXXX$.o.",
"XOOOOX####.$.o.",
"XOOOOX####.$.X ",
"XOOOOX####.$.  ",
"XOOOOX####.X   ",
"XXXXXXXXXX.    ",
"               "};
