/* XPM */
static char * sequence_xpm[] = {
/* width height ncolors cpp [x_hot y_hot] */
"17 19 7 1 0 0",
/* colors */
" 	s none	m none	c none",
".	c #000000000000",
"X	c #FFFF00000000",
"o	c #FFFFFFFF0000",
"O	s iconColor4	m white	c green",
"+	s iconColor7	m white	c cyan",
"@	s iconColor5	m black	c blue",
/* pixels */
"                 ",
"    .............",
"   .XXXXX.ooooo..",
"  .............O.",
" .ooooo.+++++..O.",
".............o.O.",
".+++++.XXXXX.o.O.",
".+++++.XXXXX.o.O.",
".+++++.XXXXX.o...",
".+++++.XXXXX.o.X.",
".+++++.XXXXX...X.",
".............+.X.",
".@@@@@.ooooo.+.X.",
".@@@@@.ooooo.+.X.",
".@@@@@.ooooo.+.. ",
".@@@@@.ooooo.+.  ",
".@@@@@.ooooo..   ",
".............    ",
"                 "};
