#define pb_s_addr.xbm_width 20
#define pb_s_addr.xbm_height 20
static unsigned char pb_s_addr.xbm_bits[] = {
   0x00, 0x00, 0x00, 0x00, 0x00, 0x00, 0x00, 0x00, 0x00, 0x80, 0x07, 0x00,
   0xe0, 0x1c, 0x00, 0x30, 0x38, 0x00, 0x30, 0x30, 0x00, 0x70, 0x00, 0x00,
   0xe0, 0x01, 0x00, 0x80, 0x07, 0x00, 0x00, 0x1e, 0x00, 0x00, 0x38, 0x00,
   0x00, 0x70, 0x00, 0x30, 0x60, 0x00, 0x70, 0x60, 0x00, 0xe0, 0x38, 0x00,
   0x80, 0x0f, 0x00, 0x00, 0x00, 0x00, 0x00, 0x00, 0x00, 0x00, 0x00, 0x00};
