/* XPM */
static char *pb_tcl_line_xpm[] = {
/* width height num_colors chars_per_pixel */
"   170    21       16            1",
/* colors */
"` c #0000ff",
". c #ffffff",
"# c None",
"a c #0000cc",
"b c #808080",
"c c #0033cc",
"d c #666699",
"e c #000080",
"f c #c0c0c0",
"g c #000000",
"h c #000000",
"i c #000000",
"j c #000000",
"k c #000000",
"l c #000000",
"m c #000000",
/* pixels */
"``````````````````````````````````````````````````````````````````````````````````````````````````````````````````````````````````````````````````````````````````````````",
"`........................................................................................................................................................................`",
"`.#############baa######################################################################################################################################################.`",
"`.#######b###aac`a######################################################################################################################################################.`",
"`.#########``ccaad######################################################################################################################################################.`",
"`.###b#b##aacccaa#######################################################################################################################################################.`",
"`.######a``ccaaab#######################################################################################################################################################.`",
"`.######`cc`daae########################################################################################################################################################.`",
"`.#####ac``baaa#########################################################################################################################################################.`",
"`.####a```aaaaa#########################################################################################################################################################.`",
"`.####```caaae##########################################################################################################################################################.`",
"`.###b``faaaae##########################################################################################################################################################.`",
"`.###a`faaaaa##b########################################################################################################################################################.`",
"`.###afaaaaa############################################################################################################################################################.`",
"`.###acaaaa###b#########################################################################################################################################################.`",
"`.##fbaee####b##########################################################################################################################################################.`",
"`.##bb##################################################################################################################################################################.`",
"`.#fb###################################################################################################################################################################.`",
"`.#b####################################################################################################################################################################.`",
"`........................................................................................................................................................................`",
"``````````````````````````````````````````````````````````````````````````````````````````````````````````````````````````````````````````````````````````````````````````"
};
