/* XPM */
static const char *pb_trash_xpm[] = {
/* width height num_colors chars_per_pixel */
"    36    36       32            1",
/* colors */
"` c #c50906",
". c #7b889f",
"# c none",
"a c #d9968e",
"b c #9da8bc",
"c c #5c5f7c",
"d c #8d90aa",
"e c #bec6c8",
"f c #cfe2f7",
"g c #dc4604",
"h c #d4d6db",
"i c #a0b5c4",
"j c #677382",
"k c #967278",
"l c #b1b7c4",
"m c #8396a9",
"n c #929aaf",
"o c #a86a58",
"p c #ae3635",
"q c #e46604",
"r c #e8e8eb",
"s c #d95b09",
"t c #89595f",
"u c #d4b4b8",
"v c #bcc8d9",
"w c #6f759b",
"x c #d33407",
"y c #c45e54",
"z c #bfdbf9",
"A c #be4c3f",
"B c #a87c82",
"C c #fbfbfa",
/* pixels */
"####################################",
"####################################",
"####################################",
"##################Ceh###############",
"################rehre###############",
"##############hehCCCrr##############",
"#########ChheerCCCrlr.cwddlh########",
"######ChelberCCCCCeCeizzlidwwbr#####",
"#####ClbneCCCCCCCCeCCCevzzffvdwv####",
"#####ld.deCCCCCCChCCCCCrlvfzffvw####",
"#####nBw.lCCCCCCCeCCCCCCCrlzfhnc####",
"#####d.nddCCCCCCChCCCCCCCCCldwww####",
"#####bwjmnbehhrrerrhrfhllnw.dndd####",
"#####lww.mieeehelebnddnbblvelm.b####",
"#####hwj.mnehhhhrCCrrrhhhveebn.l####",
"#####rjw..mbblvhrCCrrrhhhveenbwh####",
"######wjwbivfuyeCCCrrraaehelnbwh####",
"######ww..vvuxgAhrCCragxBeebbij#####",
"######dw..mvA`xgAhCragx``nlbimw#####",
"######ljwmmbbp`xgAragx``kdbiimd#####",
"######ljwmmbbbp`xgxgx``knlbiimb#####",
"######hww.mbbvhp`xqx``Bneblii.l#####",
"######rwjmmbiehhxxsq`Bnhlbeii.h#####",
"#######cw.mbilhaxx``gAuhblviiwh#####",
"#######.w.mbilaxx```xgpbbviviw######",
"#######dj.mbiBxx``Bp``spbvvibw######",
"#######lw.mmoxx``tdnp``spnivnm######",
"#######ljjj.ox``tdeebp``qj.mmb######",
"#######hcj...t`tdevhebppk.imjl######",
"#######rcjjmmdj.lvvvvvnwmiiicv######",
"########ncj.mnbblvvhvvliiimjw#######",
"#########vnccw.nbblbbbd.wc.e########",
"###########Chll..B..d.blhr##########",
"####################################",
"####################################",
"####################################"
};
