#define pb_t_addr.xbm_width 20
#define pb_t_addr.xbm_height 20
static unsigned char pb_t_addr.xbm_bits[] = {
   0x00, 0x00, 0x00, 0x00, 0x00, 0x00, 0x00, 0x00, 0x00, 0xe0, 0x7f, 0x00,
   0x60, 0x66, 0x00, 0x20, 0x46, 0x00, 0x20, 0x46, 0x00, 0x00, 0x06, 0x00,
   0x00, 0x06, 0x00, 0x00, 0x06, 0x00, 0x00, 0x06, 0x00, 0x00, 0x06, 0x00,
   0x00, 0x06, 0x00, 0x00, 0x06, 0x00, 0x00, 0x06, 0x00, 0x00, 0x06, 0x00,
   0x80, 0x1f, 0x00, 0x00, 0x00, 0x00, 0x00, 0x00, 0x00, 0x00, 0x00, 0x00};
