/* XPM */

static char * _todo_xpm[] = {
/* width height ncolors cpp [x_hot y_hot] */
"24 24 17 1 0 0",
/* colors */
" 	s none	m none	c none",
".	c #000000000000",
"X	c #AAAABFBFBFBF",
"o	s iconColor1	m black	c black",
"O	s iconColor2	m white	c white",
"+	s iconColor5	m black	c blue",
"@	c #00000000FFFF",
"#	s iconColor7	m white	c cyan",
"$	c #000000008080",
"%	s iconGray1	m white	c #dededededede",
"&	c #00000000BFBF",
"*	s iconGray7	m black	c #424242424242",
"=	s iconGray4	m white	c #949494949494",
"-	s iconColor3	m black	c red",
";	c #AAAA80808080",
":	s iconGray6	m black	c #636363636363",
">	s iconGray5	m black	c #737373737373",
/* pixels */
"                        ",
"          .........X o..",
"        ..OOOOOOOOXo.o+@",
"       .OOOOOOOOOOOOOo+@",
"oooooo.OOO.OOOOOOOOOOo+@",
"o####.OOX.OOOOOOOOOOOo+@",
"oooo.OOX.OOX.OOOOOOOOo+@",
"oOO.OOX..OX.OOOOOOOOOo+@",
"oO.OOX...O.OOX.OOOOOXo+$",
"oOoXX.OO.O.OX.OOoXXXoo+$",
"oOoo.O%%.O.O.OXX.oooooo&",
"oO%%%OX%X..O.O*.X%OX.=  ",
"oOOOOOOOOO.X.O*OOOOOo=  ",
"oO---O%%%%%%.X*%%%OOo=  ",
"oO;;;OX;X;X;X::;X;OOo=  ",
"oOOOOOOOOOOOOOOOOOOO.=  ",
"oO---O%%%%%%%%%%%%OO.=  ",
"oO;;;OX;X;X;X;X;X;OO.=  ",
"oOOOOOOOOOOOOOOOOOOO.=  ",
"oO---O%%%%%%%%%%%%OO.=  ",
"oO;;;OX;X;X;X;X;X;OO.=  ",
"oOOOOOOOOOOOOOOOOOOO.=  ",
"ooooooooooooooooooooo=  ",
" >>>>>>>>>>>>>>>>>>>>>  "};
