/* XPM */

static char * toolbox_xpm[] = {
/* width height ncolors cpp [x_hot y_hot] */
"40 40 6 1 0 0",
/* colors */
" 	s none	m none	c none",
".	c #000000000000",
"X	s iconColor2	m white	c white",
"o	c #FFFF00000000",
"O	c #808000000000",
"+	c #BFBFBFBFBFBF",
/* pixels */
"                                        ",
"                                        ",
"                                        ",
"                                        ",
"                                        ",
"                                        ",
"                                        ",
"                                        ",
"                 ......                 ",
"                .XXXXXX.                ",
"         ......................         ",
"        .oooooooooooooooooooo.O.        ",
"       ......................OOO.       ",
"        ......................OO.       ",
"         ......................O.       ",
"          .++++++++++++++++++++..       ",
"           ......................       ",
"          .......................       ",
"         ......................O.       ",
"        ......................OO.       ",
"       ......................OOO.       ",
"       .oooooooooooooooooooo.OOO.       ",
"       .ooooooooo..ooooooooo.OOO.       ",
"       .ooooooooo..ooooooooo.OOO.       ",
"       .oooooooooooooooooooo.OOO.       ",
"       ......................OOO.       ",
"       .oooooooooooooooooooo.OOO.       ",
"       .ooooooooo..ooooooooo.OOO.       ",
"       .ooooooooo..ooooooooo.OO.        ",
"       .oooooooooooooooooooo.O.         ",
"       .......................          ",
"                                        ",
"                                        ",
"                                        ",
"                                        ",
"                                        ",
"                                        ",
"                                        ",
"                                        ",
"                                        "};
