/* XPM */
static char * _user_xpm[] = {
/* width height ncolors cpp [x_hot y_hot] */
"32 32 12 1 0 0",
/* colors */
" 	c #0000FFFFFFFF",
".	s iconColor7	m white	c cyan",
"X	c #000000000000",
"o	s iconColor1	m black	c black",
"O	s iconGray2	m white	c #bdbdbdbdbdbd",
"+	s iconColor2	m white	c white",
"@	s iconGray4	m white	c #949494949494",
"#	c #FFFFFFFF0000",
"$	s iconGray6	m black	c #636363636363",
"%	s iconColor6	m white	c yellow",
"&	s iconGray1	m white	c #dededededede",
"*	c #FFFF00000000",
/* pixels */
"          .XXXXX XXXXXo         ",
"        .XXXXXXXXXXXXXXo        ",
"       .XXO+XXXX@OXXXXXXo       ",
"       .XO@XXXXXX@XXXXXXX.      ",
"      .XX@XXXXXXXXXXXXXXXo      ",
"      .XXXXXXXXXo+XXXXXXXX.     ",
"     .XXXXXXXXXo+#+#+XXXXXo     ",
"     .XXX$oXXoo+#+#+#+o$XXX.    ",
"     .XX$#+Xo#+#+#+#+%O$XXX.    ",
"     %XX$+&&OO#+#+#&&&#O$XXo    ",
"     @XX@#$XXXX#+#XXXX$#$XXo    ",
"     @+X%+OOOO#+#X#OOO@+$X+o    ",
"     @#@+#@@X@+#+X+@X@@#@X#o    ",
"     @+@%+%@X+#+#X#+X@#+@@+o    ",
"     @#@+#+#+#+#+X+#+#+#O@#o    ",
"     @+@%+#+#+#+#@O+#+#+O@+X    ",
"      X@O#+#+#+#+#@#+#+#O@X@    ",
"      .$O+#+#+@+#+X+#+#&O@X     ",
"      .@O#+#+%@XXX@%+#+O@X@     ",
"       .O+#+%+%+O+%+%+#O@X      ",
"        OO+%+%+#+#+%+%+OX       ",
"        .O#+#Oooooo@#+O@X       ",
"         OO#+%&OOO&%+%@X.       ",
"         O@O#+%+%+%+#@@$.       ",
"         ++@+#+#+#+#+@o@@       ",
"        O+++X+#+@+#+XoO@@$      ",
"       O+++++oX@o@Xo+++O@XXXX   ",
"   +++++X++++++X*X+++++OX++&OXXX",
"+++++++++X++++X***X++++X+++++&OO",
"++++++++++X+++X***X+++X+++++++++",
"+++++++++++X+X*****X+X++++++++++",
"++++++++++++X++***++X+++++++++++"};
