#define pb_U_addr.xbm_width 20
#define pb_U_addr.xbm_height 20
static unsigned char pb_U_addr.xbm_bits[] = {
   0x00, 0x00, 0x00, 0x00, 0x00, 0x00, 0x00, 0x00, 0x00, 0xf0, 0x78, 0x00,
   0x60, 0x30, 0x00, 0x60, 0x30, 0x00, 0x60, 0x30, 0x00, 0x60, 0x30, 0x00,
   0x60, 0x30, 0x00, 0x60, 0x30, 0x00, 0x60, 0x30, 0x00, 0x60, 0x30, 0x00,
   0x60, 0x30, 0x00, 0x60, 0x30, 0x00, 0x60, 0x30, 0x00, 0xc0, 0x18, 0x00,
   0x80, 0x0f, 0x00, 0x00, 0x00, 0x00, 0x00, 0x00, 0x00, 0x00, 0x00, 0x00};
