#define pb_V_addr.xbm_width 20
#define pb_V_addr.xbm_height 20
static unsigned char pb_V_addr.xbm_bits[] = {
   0x00, 0x00, 0x00, 0x00, 0x00, 0x00, 0x00, 0x00, 0x00, 0xf0, 0xf0, 0x00,
   0x60, 0x60, 0x00, 0x60, 0x20, 0x00, 0xc0, 0x20, 0x00, 0xc0, 0x30, 0x00,
   0xc0, 0x10, 0x00, 0x80, 0x11, 0x00, 0x80, 0x19, 0x00, 0x80, 0x09, 0x00,
   0x00, 0x0b, 0x00, 0x00, 0x0f, 0x00, 0x00, 0x06, 0x00, 0x00, 0x06, 0x00,
   0x00, 0x06, 0x00, 0x00, 0x00, 0x00, 0x00, 0x00, 0x00, 0x00, 0x00, 0x00};
