/* XPM */
static const char *pb_vnc_xpm[] = {
/* width height num_colors chars_per_pixel */
"    32    32       32            1",
/* colors */
"` c #040284",
". c #2a8e94",
"# c #b09957",
"a c #d4d16a",
"b c #b7c5cc",
"c c #b13855",
"d c #abb0d6",
"e c #3f4699",
"f c #fbf118",
"g c #e3d5a0",
"h c #ffec8b",
"i c #e99136",
"j c #eab238",
"k c #6567a9",
"l c #f9f8dd",
"m c #ddb273",
"n c #ebd152",
"o c #bc52ec",
"p c #27c4c2",
"q c #f86b28",
"r c #7432a4",
"s c #ef4dd2",
"t c #809e6f",
"u c #242e7f",
"v c #f398ed",
"w c #8188db",
"x c #e972cc",
"y c #384ae7",
"z c #2135ea",
"A c #946fb9",
"B c #5cc9a1",
"C c #f7f664",
/* pixels */
"````````````````````````````````",
"`hhhhhhhhhhhhhhhllhhhhhhhhhhhhh`",
"`hhhhhhhhhhhhhhhhhhhhhhhhhhhhhh`",
"`hhhhhhhhhhhhhgkddwktlhhhhhhhhh`",
"`hhhhhhhhhhhhhdzwwke`bhhhhhhhhh`",
"`hhhhhhhhhhhhhbzwyAeubChhhhhhhh`",
"`hhhhhhhhhhhhhbyzbkyubhhhhhhhhh`",
"`hhhhhhhhhhhhhwzbbyeubhhhhhhhhh`",
"`hhhhhhhhhhhhhdydykeubChhhhhhhh`",
"`hhhhhhhhhhhhhbzybkeubhhhhhhhhh`",
"`hhhhhhhhhhhgn#zdbkyubChhhhhhhh`",
"`hhhhhhlgnggllwybdzeu#nnanllhhh`",
"`hhhlgngllllll#zwzkeutBaCafj#mh`",
"`ggjalllllgniiczzgkyu.pBBBtglmh`",
"`gnlgaganjiiqqczbbyeu.pppptllmh`",
"`ggllllnjjiqqqcydykeu.pppptCCmC`",
"`agllllnjjiiqqczywkeu.pppptffah`",
"`ngllllnjjiiqqczwgyyu.pppptffjh`",
"`gnllllnjjiqqqryddyeu.pppptffjC`",
"`agllllnjjiiqqczdzkeu.pppptffaC`",
"`nnllllgjjiiqqqzzbke`k.ppptffjC`",
"`gnllllnjiqxssjAkeekjssoAA#ffjh`",
"`naCClljxssxvvvvnlggvv#ij#nffjC`",
"`nnCCCllCnnmmvxjjvnjjjnfnffnf#h`",
"`anffCCCllllllCgigjjnjnjfjnjiaC`",
"`hgnnffCCCllllllinjjnjnjiimghhh`",
"`hhhhlgnnnCCllllijjjiimlCChhhhh`",
"`hhhhhhhhhggnana#iimlhhhhhhhhhh`",
"`hhhhhhhhhhhhhhlghhhhhhhhhhhhhh`",
"`hhhhhhhhhhhhhhhhhhhhhhhhhhhhhh`",
"`hhhhhhhhhhhhhhhhhhhhhhhhhhhhhh`",
"````````````````````````````````"
};
