#define pb_z_addr.xbm_width 20
#define pb_z_addr.xbm_height 20
static unsigned char pb_z_addr.xbm_bits[] = {
   0x00, 0x00, 0x00, 0x00, 0x00, 0x00, 0x00, 0x00, 0x00, 0xe0, 0x7f, 0x00,
   0x60, 0x60, 0x00, 0x20, 0x60, 0x00, 0x20, 0x30, 0x00, 0x00, 0x18, 0x00,
   0x00, 0x0c, 0x00, 0x00, 0x06, 0x00, 0x00, 0x03, 0x00, 0x80, 0x01, 0x00,
   0xc0, 0x00, 0x00, 0x60, 0x40, 0x00, 0x60, 0x40, 0x00, 0x60, 0x60, 0x00,
   0xe0, 0x7f, 0x00, 0x00, 0x00, 0x00, 0x00, 0x00, 0x00, 0x00, 0x00, 0x00};
