#define ck_off.xbm_width 12
#define ck_off.xbm_height 12
static unsigned char ck_off.xbm_bits[] = {
   0xff, 0x07, 0x01, 0x0c, 0x01, 0x0c, 0x01, 0x0c, 0x01, 0x0c, 0x01, 0x0c,
   0x01, 0x0c, 0x01, 0x0c, 0x01, 0x0c, 0x01, 0x0c, 0xff, 0x0f, 0xfe, 0x0f};
