/* XPM */
static char * evnt_nav_xpm[] = {
/* width height ncolors cpp [x_hot y_hot] */
"170 25 6 1 0 0",
/* colors */
" 	s none	m none	c none",
".	s iconColor1	m black	c black",
"X	s iconColor6	m white	c yellow",
"o	s iconColor7	m white	c cyan",
"O	s iconColor3	m black	c red",
"+	s iconColor5	m black	c blue",
/* pixels */
"                                                                                                                                                                          ",
"                                                                                                                                                                          ",
"                                                                                                                                                                          ",
"                                                                                                                                                                          ",
"                                                                                                                                                                          ",
"     ......                                                                                                                                                               ",
"    .XXXX..                                                                                                                                                               ",
"   ......o.                                                                                                                                                               ",
"   .OOOO.o.                                                                                                                                                               ",
"   .OOOO.o.                                                                                                                                                               ",
"   .OOOO.o......                                                                                                                                                          ",
"   .OOOO..XXXX..                                                                                                                                                          ",
"   ...........+.                                                                                                                                                          ",
"  .oooo..oooo.+.                                                                                                                                                          ",
" ......O.oooo.+.                                                                                                                                                          ",
" .XXXX.O.oooo.+.                                                                                                                                                          ",
" .XXXX.O.oooo..                                                                                                                                                           ",
" .XXXX.O......                                                                                                                                                            ",
" .XXXX..                                                                                                                                                                  ",
" ......                                                                                                                                                                   ",
"                                                                                                                                                                          ",
"                                                                                                                                                                          ",
"                                                                                                                                                                          ",
"                                                                                                                                                                          ",
"                                                                                                                                                                          "};
