/* XPM */
static char * pb_new_xpm[] = {
/* width height ncolors cpp [x_hot y_hot] */
"24 24 6 1 0 0",
/* colors */
" 	s none	m none	c none",
".	s iconColor1	m black	c black",
"X	s iconColor2	m white	c white",
"o	s iconColor6	m white	c yellow",
"O	s iconGray3	m white	c #adadadadadad",
"+	s iconGray2	m white	c #bdbdbdbdbdbd",
/* pixels */
"                        ",
"                        ",
"                        ",
"                        ",
"      ..........        ",
"      .XXXXXXXX..       ",
"    o .XXXXXXXX.X.      ",
"    Oo.Xo+XXXXX.XX.     ",
"     +oo+XXXXXX.....    ",
"    ooo+ooXXXXXXXXX.    ",
"    +o+o++XXXXXXXXX.    ",
"    o+.XoXXXXXXXXXX.    ",
"      .XXOXXXXXXXXX.    ",
"      .XXXXXXXXXXXX.    ",
"      .XXXXXXXXXXXX.    ",
"      .XXXXXXXXXXXX.    ",
"      .XXXXXXXXXXXX.    ",
"      .XXXXXXXXXXXX.    ",
"      .XXXXXXXXXXXX.    ",
"      .XXXXXXXXXXXX.    ",
"      ..............    ",
"                        ",
"                        ",
"                        "};
