#define ck_def.xbm_width 12
#define ck_def.xbm_height 12
static unsigned char ck_def.xbm_bits[] = {
   0xff, 0x07, 0x01, 0x0c, 0x55, 0x0d, 0x01, 0x0c, 0x55, 0x0d, 0x01, 0x0c,
   0x55, 0x0d, 0x01, 0x0c, 0x55, 0x0d, 0x01, 0x0c, 0xff, 0x0f, 0xfe, 0x0f};
