/* XPM */
static char * b_arrow_xpm[] = {
/* width height ncolors cpp [x_hot y_hot] */
"45 25 5 1 0 0",
/* colors */
" 	s none	m none	c none",
".	s iconColor1	m black	c black",
"X	s iconGray6	m black	c #636363636363",
"o	s iconColor6	m white	c yellow",
"O	s bottomShadowColor	m black	c #636363636363",
/* pixels */
"                                             ",
"            .                                ",
"           ..X                               ",
"          .o.X                               ",
"         .oo.X                               ",
"        .ooo.X                               ",
"       .oooo.X                               ",
"      .ooooo.X                               ",
"     .oooooo................................ ",
"    .ooooooooooooooooooooooooooooooooooooooOX",
"   .oooooooooooooooooooooooooooooooooooooooOX",
"  .ooooooooooooooooooooooooooooooooooooooooOX",
" .oooooooooooooooooooooooooooooooooooooooooOX",
"  .ooooooooooooooooooooooooooooooooooooooooOX",
"   .oooooooooooooooooooooooooooooooooooooooOX",
"    .ooooooooooooooooooooooooooooooooooooooOX",
"     .oooooo................................X",
"      .ooooo.XXXXXXXXXXXXXXXXXXXXXXXXXXXXXXXX",
"       .oooo.X                               ",
"        .ooo.X                               ",
"         .oo.X                               ",
"          .o.X                               ",
"           ..X                               ",
"            .X                               ",
"                                             "};
