/* XPM */
static char * pb_both_xpm[] = {
/* width height ncolors cpp [x_hot y_hot] */
"10 20 4 1 0 0",
/* colors */
" 	s none	m none	c none",
".	s iconColor2	m white	c white",
"X	s iconColor3	m black	c red",
"o	s iconColor5	m black	c blue",
/* pixels */
"          ",
"......... ",
"...XXX... ",
"..XX.XX.. ",
".XX...XX. ",
".X.....X. ",
".XX...XX. ",
"..XX.XX.. ",
"...XXX... ",
"......... ",
"......... ",
"......... ",
"......... ",
".oo...oo. ",
".ooo..oo. ",
".oo.o.oo. ",
".oo..ooo. ",
".oo...oo. ",
"......... ",
"          "};
