/* XPM */
static char * recycle_xpm[] = {
/* width height ncolors cpp [x_hot y_hot] */
"40 40 8 1 0 0",
/* colors */
" 	s none	m none	c none",
".	c #808080808080",
"X	s iconColor2	m white	c white",
"o	s iconGray6	m black	c #636363636363",
"O	c #BFBFBFBFBFBF",
"+	s iconColor5	m black	c blue",
"@	c #000000000000",
"#	s iconGray7	m black	c #424242424242",
/* pixels */
"                                        ",
"                                        ",
"                                        ",
"                                        ",
"              ...                       ",
"           ...XoX..                     ",
"        ...XXX.o.XX..                   ",
"      ..XXX....o.OOXX..                 ",
"     .XX.......o..OOOXX..               ",
"     .X........o..OOOOOXX..             ",
"     .XX.......o...OOOOOOXX..           ",
"     .OOXX.....o...OOOOOOOOXX..         ",
"     .OOOOXX...o....OOOOOOOOOXX..       ",
"      .OOOOOXX.o....OOOOOOOOOOOXXo      ",
"      .OOOOOOOXX.....OOOOOOOOOOXXo      ",
"      .OOOOOOOOOXX....OOOOOOXXX..o      ",
"      .OOOOOOOOOOOXX..OOOXXX.....o      ",
"       .OOOOOOO.++OOXXXXX.......o       ",
"       .OOOOOO+++++O+OO.........o       ",
"       .OO++++OOO++++OO.........o       ",
"       .OOO+++OOOO+++OO.........o       ",
"        .O++++OOO++++OO........o        ",
"        .O++O+OOOOOOOOO........o        ",
"        .O++OOOOOOOO+OO........o        ",
"        .O++OOOO+OOO+OO........o        ",
"         .O+.OO++OO.+OO.......o         ",
"         .OO+O+++++++OO.......o         ",
"         .OOOO.+++++OOO.......o         ",
"         ...OOO.+OOOOOO.......o         ",
"          @@..OO.OOOOOO......o          ",
"            @@..OOOOOOO......o          ",
"              @@..OOOOO......o          ",
"                @@..OOO....##@          ",
"                  @@..O..##@@           ",
"                    @@.##@@             ",
"                      @@@               ",
"                                        ",
"                                        ",
"                                        ",
"                                        "};
